<svg id="Layer" enable-background="new 0 0 64 64" height="512" viewBox="0 0 64 64" width="512" xmlns="http://www.w3.org/2000/svg"><path d="m40.54 25.46c.98.98 1.46 2.26 1.46 3.54s-.48 2.56-1.46 3.54l-6.78 6.74c-.46.46-1.09.72-1.74.72s-1.28-.26-1.74-.72l-6.82-6.74c-1.95-1.96-1.95-5.12 0-7.08 1.96-1.95 5.12-1.95 7.08 0 .98.98 1.46 2.26 1.46 3.54 0-1.28.48-2.56 1.46-3.54 1.96-1.95 5.12-1.95 7.08 0z" fill="#ff7043"/><path d="m32 10c12.15 0 22 9.85 22 22s-9.85 22-22 22-22-9.85-22-22 9.85-22 22-22zm10 19c0-1.28-.48-2.56-1.46-3.54-1.96-1.95-5.12-1.95-7.08 0-.98.98-1.46 2.26-1.46 3.54 0-1.28-.48-2.56-1.46-3.54-1.96-1.95-5.12-1.95-7.08 0-1.95 1.96-1.95 5.12 0 7.08l6.82 6.74c.46.46 1.09.72 1.74.72s1.28-.26 1.74-.72l6.78-6.74c.98-.98 1.46-2.26 1.46-3.54z" fill="#4dd0e1"/><g fill="#012e52"><path d="m32 8c-13.233 0-24 10.766-24 24s10.767 24 24 24 24-10.766 24-24-10.767-24-24-24zm0 44c-11.028 0-20-8.972-20-20s8.972-20 20-20 20 8.972 20 20-8.972 20-20 20z"/><path d="m32.045 24.046c-.015.016-.03.031-.045.046-.017-.017-.033-.033-.049-.05-2.731-2.717-7.174-2.715-9.909.007-2.716 2.73-2.716 7.171.012 9.913l6.812 6.731c.829.831 1.979 1.307 3.154 1.307 1.176 0 2.325-.476 3.15-1.302l6.785-6.744c1.318-1.32 2.045-3.079 2.045-4.954s-.727-3.634-2.049-4.958c-2.73-2.715-7.172-2.717-9.906.004zm7.085 7.076-6.785 6.745c-.168.167-.472.177-.658-.009l-6.809-6.728c-1.169-1.174-1.169-3.084-.007-4.251.587-.585 1.359-.877 2.13-.877s1.54.291 2.124.873c.564.563.875 1.318.875 2.125 0 1.104.896 2 2 2s2-.896 2-2c0-.807.311-1.562.871-2.122 1.174-1.17 3.086-1.168 4.254-.004.564.564.875 1.319.875 2.126s-.311 1.562-.87 2.122z"/></g></svg>