<svg id="Layer" enable-background="new 0 0 64 64" height="512" viewBox="0 0 64 64" width="512" xmlns="http://www.w3.org/2000/svg"><path d="m40 31v7c0 1.1-.9 2-2 2h-12c-1.1 0-2-.9-2-2v-9-3c0-1.1.9-2 2-2h3c1.1 0 2 .9 2 2v1c0 1.1.9 2 2 2h5c1.1 0 2 .9 2 2z" fill="#ff7043"/><path d="m32 10c12.15 0 22 9.85 22 22s-9.85 22-22 22-22-9.85-22-22 9.85-22 22-22zm8 28v-7c0-1.1-.9-2-2-2h-5c-1.1 0-2-.9-2-2v-1c0-1.1-.9-2-2-2h-3c-1.1 0-2 .9-2 2v3 9c0 1.1.9 2 2 2h12c1.1 0 2-.9 2-2z" fill="#4dd0e1"/><g fill="#012e52"><path d="m32 8c-13.234 0-24 10.766-24 24 0 13.233 10.766 24 24 24 13.233 0 24-10.767 24-24 0-13.234-10.767-24-24-24zm0 44c-11.028 0-20-8.972-20-20s8.972-20 20-20 20 8.972 20 20-8.972 20-20 20z"/><path d="m38 27h-5v-1c0-2.206-1.794-4-4-4h-3c-2.206 0-4 1.794-4 4v12c0 2.206 1.794 4 4 4h12c2.206 0 4-1.794 4-4v-7c0-2.206-1.794-4-4-4zm0 11h-12v-12h3v1c0 2.206 1.794 4 4 4h5z"/></g></svg>