<svg id="Layer" enable-background="new 0 0 64 64" height="512" viewBox="0 0 64 64" width="512" xmlns="http://www.w3.org/2000/svg"><path d="m32 10c12.15 0 22 9.85 22 22s-9.85 22-22 22-22-9.85-22-22 9.85-22 22-22zm1 13c0-.55-.45-1-1-1s-1 .45-1 1 .45 1 1 1 1-.45 1-1z" fill="#4dd0e1"/><g fill="#012e52"><path d="m32 56c13.233 0 24-10.766 24-24s-10.767-24-24-24-24 10.766-24 24 10.767 24 24 24zm0-44c11.028 0 20 8.972 20 20s-8.972 20-20 20-20-8.972-20-20 8.972-20 20-20z"/><path d="m32 26c1.654 0 3-1.346 3-3s-1.346-3-3-3-3 1.346-3 3 1.346 3 3 3z"/><path d="m28 48h8c1.104 0 2-.896 2-2s-.896-2-2-2h-2v-12c0-1.104-.896-2-2-2h-3c-1.104 0-2 .896-2 2s.896 2 2 2h1v10h-2c-1.104 0-2 .896-2 2s.896 2 2 2z"/></g></svg>