<svg id="Layer" enable-background="new 0 0 64 64" height="512" viewBox="0 0 64 64" width="512" xmlns="http://www.w3.org/2000/svg"><circle cx="32" cy="26" fill="#ff7043" r="4"/><path d="m39.52 37.61c.25 1.24-.7 2.39-1.96 2.39h-11.12c-1.26 0-2.21-1.15-1.96-2.39l.88-4.39c.37-1.87 2.01-3.22 3.92-3.22h2.72 2.72c1.91 0 3.55 1.35 3.92 3.22z" fill="#ff7043"/><path d="m32 10c12.15 0 22 9.85 22 22s-9.85 22-22 22-22-9.85-22-22 9.85-22 22-22zm5.56 30c1.26 0 2.21-1.15 1.96-2.39l-.88-4.39c-.37-1.87-2.01-3.22-3.92-3.22h-2.72c2.21 0 4-1.79 4-4s-1.79-4-4-4-4 1.79-4 4 1.79 4 4 4h-2.72c-1.91 0-3.55 1.35-3.92 3.22l-.88 4.39c-.25 1.24.7 2.39 1.96 2.39z" fill="#4dd0e1"/><g fill="#012e52"><path d="m32 8c-13.233 0-24 10.767-24 24s10.767 24 24 24 24-10.767 24-24-10.767-24-24-24zm0 44c-11.028 0-20-8.972-20-20s8.972-20 20-20 20 8.972 20 20-8.972 20-20 20z"/><path d="m40.602 32.831c-.369-1.867-1.603-3.377-3.224-4.185.394-.8.622-1.696.622-2.646 0-3.309-2.691-6-6-6s-6 2.691-6 6c0 .95.228 1.846.623 2.646-1.62.808-2.853 2.315-3.223 4.182l-.88 4.388c-.237 1.179.063 2.389.824 3.318.762.932 1.891 1.466 3.096 1.466h11.12c1.205 0 2.334-.534 3.097-1.467.762-.93 1.062-2.14.824-3.315zm-8.602-8.831c1.103 0 2 .897 2 2s-.897 2-2 2-2-.897-2-2 .897-2 2-2zm-5.559 14.003.88-4.391c0-.001.001-.003.001-.004.185-.931 1.008-1.608 1.958-1.608h5.439c.95 0 1.773.677 1.959 1.612l.882 4.388z"/></g></svg>