<svg id="Layer" enable-background="new 0 0 64 64" height="512" viewBox="0 0 64 64" width="512" xmlns="http://www.w3.org/2000/svg"><path d="m39.97 39.67c.21 1.22-.73 2.33-1.97 2.33h-12c-1.24 0-2.18-1.11-1.97-2.33l.97-11.67h3 8 3z" fill="#ff7043"/><path d="m36 23v5h-8v-5c0-1.1.9-2 2-2h4c1.1 0 2 .9 2 2z" fill="#4dd0e1"/><path d="m32 10c12.15 0 22 9.85 22 22s-9.85 22-22 22-22-9.85-22-22 9.85-22 22-22zm6 32c1.24 0 2.18-1.11 1.97-2.33l-.97-11.67h-3v-5c0-1.1-.9-2-2-2h-4c-1.1 0-2 .9-2 2v5h-3l-.97 11.67c-.21 1.22.73 2.33 1.97 2.33z" fill="#4dd0e1"/><g fill="#012e52"><path d="m32 8c-13.234 0-24 10.767-24 24s10.766 24 24 24 24-10.767 24-24-10.766-24-24-24zm0 44c-11.028 0-20-8.972-20-20s8.972-20 20-20 20 8.972 20 20-8.972 20-20 20z"/><path d="m40.993 27.834c-.086-1.036-.952-1.834-1.993-1.834h-1v-3c0-2.206-1.794-4-4-4h-4c-2.206 0-4 1.794-4 4v3h-1c-1.041 0-1.907.798-1.993 1.834l-.964 11.598c-.165 1.13.159 2.271.896 3.146.762.903 1.877 1.422 3.061 1.422h12c1.184 0 2.299-.519 3.061-1.422.737-.875 1.062-2.017.896-3.146zm-10.993-4.834h4v3h-4zm-3.999 17.009c.01-.057.017-.115.022-.173l.818-9.836h10.318l.818 9.836c.005.058.013.106.023.164z"/></g></svg>