<svg height="384pt" viewBox="-16 0 384 384" width="384pt" xmlns="http://www.w3.org/2000/svg"><path d="m176.09375 129.839844c26-17.761719 58.640625-22.238282 88-13.441406 15.441406 4.640624 29.921875 12.882812 42.160156 24.800781 28.242188 27.519531 36.402344 67.28125 24.640625 101.921875-6.71875 19.757812-20.878906 36.320312-38.558593 48l-116.242188 76.878906-116.238281-76.878906c-17.679688-11.679688-31.839844-28.242188-38.558594-48-11.761719-34.640625-3.601563-74.402344 24.636719-101.921875 12.242187-11.917969 26.722656-20.160157 42.160156-24.800781 29.363281-8.796876 62-4.320313 88 13.441406zm8 86.160156c0-4.398438-3.597656-8-8-8-4.398438 0-8 3.601562-8 8s3.601562 8 8 8c4.402344 0 8-3.601562 8-8zm0 0" fill="#ff7043"/><g fill="#012e52"><path d="m51.03125 304.464844 116.238281 76.878906c2.671875 1.777344 5.753907 2.65625 8.824219 2.65625 3.074219 0 6.152344-.886719 8.832031-2.65625l116.234375-76.871094c21.4375-14.167968 37.375-34.121094 44.878906-56.207031 14.265626-42 3.296876-87.417969-28.625-118.53125-10.894531-10.605469-23.445312-18.75-37.320312-24.496094v-41.238281c0-35.289062-28.710938-64-64-64h-80c-35.285156 0-64 28.710938-64 64v41.246094c-13.871094 5.738281-26.429688 13.882812-37.328125 24.496094-31.910156 31.105468-42.878906 76.515624-28.621094 118.53125 7.519531 22.078124 23.453125 42.039062 44.886719 56.191406zm85.0625-272.464844h80c17.648438 0 32 14.351562 32 32v32.976562c-24.824219-2.824218-50.246094 2.007813-72 14.085938-21.75-12.078125-47.167969-16.910156-72-14.078125v-32.984375c0-17.648438 14.351562-32 32-32zm-79 120.664062c10.089844-9.832031 22.074219-16.871093 35.59375-20.9375 8.207031-2.460937 16.703125-3.664062 25.167969-3.664062 14.734375 0 29.359375 3.707031 42.238281 10.769531v13.167969c0 8.832031 7.167969 16 16 16s16-7.167969 16-16v-13.144531c20.289062-11.128907 44.890625-13.886719 67.410156-7.136719 13.527344 4.066406 25.503906 11.113281 35.582032 20.9375 23 22.414062 30.914062 55.105469 20.65625 85.3125-5.230469 15.398438-16.679688 29.527344-32.230469 39.808594l-107.417969 71.039062-107.421875-71.046875c-15.542969-10.265625-26.992187-24.402343-32.226563-39.792969-10.253906-30.214843-2.34375-62.90625 20.648438-85.3125zm0 0"/><path d="m176.09375 240c13.234375 0 24-10.769531 24-24s-10.765625-24-24-24c-13.230469 0-24 10.769531-24 24s10.769531 24 24 24zm0 0"/><path d="m176.09375 264c-8.832031 0-16 7.167969-16 16v24c0 8.832031 7.167969 16 16 16s16-7.167969 16-16v-24c0-8.832031-7.167969-16-16-16zm0 0"/></g></svg>