<svg height="384pt" viewBox="0 0 384 384" width="384pt" xmlns="http://www.w3.org/2000/svg"><path d="m368 288v64c0 8.800781-7.199219 16-16 16h-320c-8.800781 0-16-7.199219-16-16v-64zm0 0" fill="#4dd0e1"/><path d="m368 32v256h-352v-256c0-8.800781 7.199219-16 16-16h320c8.800781 0 16 7.199219 16 16zm-117.441406 134.238281c17.921875-17.917969 17.921875-46.878906 0-64.796875-15.917969-15.921875-40.71875-17.679687-58.558594-5.203125-17.839844-12.476562-42.640625-10.71875-58.558594 5.203125-17.921875 17.917969-17.921875 46.878906 0 64.796875l58.558594 49.761719zm0 0" fill="#e0f7fa"/><path d="m192 96.238281c17.839844-12.476562 42.640625-10.71875 58.558594 5.203125 17.921875 17.917969 17.921875 46.878906 0 64.796875l-58.558594 49.761719-58.558594-49.761719c-17.921875-17.917969-17.921875-46.878906 0-64.796875 15.917969-15.921875 40.71875-17.679687 58.558594-5.203125zm0 0" fill="#ff7043"/><g fill="#012e52"><path d="m32 384h320c17.648438 0 32-14.351562 32-32v-320c0-17.648438-14.351562-32-32-32h-320c-17.648438 0-32 14.351562-32 32v320c0 17.648438 14.351562 32 32 32zm0-32v-48h320v48zm320-320v240h-320v-240zm0 0"/><path d="m123.078125 178.433594 58.5625 49.757812c2.984375 2.535156 6.671875 3.808594 10.359375 3.808594s7.375-1.273438 10.359375-3.808594l58.5625-49.757812c.324219-.28125.644531-.578125.949219-.882813 24.105468-24.101562 24.105468-63.320312 0-87.421875-18.6875-18.695312-46.695313-23.207031-69.871094-12.3125-23.183594-10.894531-51.175781-6.390625-69.871094 12.3125-24.105468 24.101563-24.105468 63.320313 0 87.421875.304688.304688.625.601563.949219.882813zm21.675781-65.679688c8.382813-8.378906 20.605469-10.753906 31.246094-6.851562v14.097656c0 8.832031 7.167969 16 16 16s16-7.167969 16-16v-14.097656c10.640625-3.902344 22.855469-1.527344 31.246094 6.851562 11.488281 11.484375 11.625 30.09375.410156 41.757813l-47.65625 40.488281-47.65625-40.496094c-11.214844-11.65625-11.078125-30.265625.410156-41.75zm0 0"/></g></svg>