<svg height="384pt" viewBox="-48 0 384 384" width="384pt" xmlns="http://www.w3.org/2000/svg"><path d="m272 144v208c0 8.800781-7.199219 16-16 16h-224c-8.800781 0-16-7.199219-16-16v-208c0-8.800781 7.199219-16 16-16h224c8.800781 0 16 7.199219 16 16zm-75.921875 109.519531c15.921875-15.917969 15.921875-41.679687 0-57.597656-14.15625-14.160156-36.15625-15.761719-52.078125-4.640625-15.921875-11.121094-37.921875-9.519531-52.078125 4.640625-15.921875 15.917969-15.921875 41.679687 0 57.597656l52.078125 58.480469zm0 0" fill="#4dd0e1"/><path d="m144 191.28125c15.921875-11.121094 37.921875-9.519531 52.078125 4.640625 15.921875 15.917969 15.921875 41.679687 0 57.597656l-52.078125 58.480469-52.078125-58.480469c-15.921875-15.917969-15.921875-41.679687 0-57.597656 14.15625-14.160156 36.15625-15.761719 52.078125-4.640625zm0 0" fill="#ff7043"/><g fill="#012e52"><path d="m144 172.953125c-21.160156-9.546875-46.457031-5.296875-63.390625 11.65625-10.730469 10.71875-16.625 24.964844-16.625 40.109375 0 14.984375 5.777344 29.082031 16.273437 39.761719l51.796876 58.160156c3.035156 3.40625 7.386718 5.359375 11.945312 5.359375s8.910156-1.953125 11.945312-5.359375l51.796876-58.160156c10.503906-10.679688 16.273437-24.785157 16.273437-39.761719 0-15.144531-5.894531-29.390625-16.625-40.109375-16.941406-16.953125-42.253906-21.203125-63.390625-11.65625zm40.769531 69.246094c-.21875.214843-.433593.449219-.632812.671875l-40.136719 45.074218-40.136719-45.066406c-.199219-.230468-.414062-.453125-.632812-.671875-4.679688-4.671875-7.246094-10.878906-7.246094-17.488281 0-6.597656 2.566406-12.808594 7.246094-17.488281 4.808593-4.804688 11.144531-7.269531 17.511719-7.269531 2.441406 0 4.882812.359374 7.25 1.09375v6.945312c0 8.832031 7.167968 16 16 16 8.832031 0 16-7.167969 16-16v-6.871094c8.550781-2.648437 18.121093-.535156 24.769531 6.109375 4.679687 4.671875 7.246093 10.882813 7.246093 17.480469.007813 6.601562-2.558593 12.808594-7.238281 17.480469zm0 0"/><path d="m32 384h224c17.648438 0 32-14.351562 32-32v-208c0-17.648438-14.351562-32-32-32h-16v-64c0-26.472656-21.527344-48-48-48h-96c-26.472656 0-48 21.527344-48 48v64h-16c-17.648438 0-32 14.351562-32 32v208c0 17.648438 14.351562 32 32 32zm48-336c0-8.824219 7.175781-16 16-16h96c8.824219 0 16 7.175781 16 16v64h-128zm-48 96h224v208h-224zm0 0"/></g></svg>