<svg height="384pt" viewBox="0 -24 384 384" width="384pt" xmlns="http://www.w3.org/2000/svg"><path d="m149.519531 286.480469c24.480469 20.558593 42.480469 33.519531 42.480469 33.519531s176-126.640625 176-216c0-48.640625-39.359375-88-88-88s-88 39.359375-88 88c0-48.640625-39.359375-88-88-88s-88 39.359375-88 88c0 43.679688 42.160156 96.480469 85.199219 138.800781zm0 0" fill="#4dd0e1"/><path d="m280 0c-37.007812 0-69.558594 19.433594-88 48.625-18.441406-29.191406-50.992188-48.625-88-48.625-57.34375 0-104 46.65625-104 104 0 40.96875 30.273438 91.503906 89.984375 150.207031 6.296875 6.191407 16.441406 6.097657 22.625-.191406 6.191406-6.304687 6.109375-16.429687-.183594-22.632813-51.867187-50.976562-80.425781-96.214843-80.425781-127.382812 0-39.695312 32.296875-72 72-72s72 32.304688 72 72c0 8.832031 7.167969 16 16 16s16-7.167969 16-16c0-39.695312 32.296875-72 72-72s72 32.304688 72 72c0 62.457031-107.808594 156.726562-159.945312 196.070312-7.460938-5.6875-18.878907-14.621093-32.238282-25.839843-6.769531-5.679688-16.855468-4.804688-22.535156 1.960937-5.6875 6.769532-4.808594 16.855469 1.957031 22.535156 24.648438 20.707032 42.664063 33.714844 43.417969 34.257813 2.792969 2.015625 6.0625 3.015625 9.34375 3.015625 3.273438 0 6.550781-1 9.34375-3.007812 18.695312-13.457032 182.65625-134.167969 182.65625-228.992188 0-57.34375-46.65625-104-104-104zm0 0" fill="#012e52"/></svg>