<svg height="384pt" viewBox="0 0 384 384" width="384pt" xmlns="http://www.w3.org/2000/svg"><path d="m358.640625 313.359375c12.480469 12.480469 12.480469 32.800781 0 45.28125-6.242187 6.238281-14.480469 9.359375-22.640625 9.359375s-16.398438-3.121094-22.640625-9.359375l-104.320313-104.320313c18.640626-11.039062 34.242188-26.640624 45.28125-45.28125zm0 0" fill="#ff7043"/><path d="m272 144c0 23.761719-6.480469 46-17.679688 65.039062-11.039062 18.640626-26.640624 34.242188-45.28125 45.28125-19.039062 11.199219-41.277343 17.679688-65.039062 17.679688-70.71875 0-128-57.28125-128-128s57.28125-128 128-128 128 57.28125 128 128zm-69.441406 14.238281c17.921875-17.917969 17.921875-46.878906 0-64.796875-15.917969-15.921875-40.71875-17.679687-58.558594-5.203125-17.839844-12.476562-42.640625-10.71875-58.558594 5.203125-17.921875 17.917969-17.921875 46.878906 0 64.796875l58.558594 49.761719zm0 0" fill="#4dd0e1"/><path d="m144 88.238281c17.839844-12.476562 42.640625-10.71875 58.558594 5.203125 17.921875 17.917969 17.921875 46.878906 0 64.796875l-58.558594 49.761719-58.558594-49.761719c-17.921875-17.917969-17.921875-46.878906 0-64.796875 15.917969-15.921875 40.71875-17.679687 58.558594-5.203125zm0 0" fill="#ff7043"/><g fill="#012e52"><path d="m212.921875 170.441406c.324219-.28125.644531-.578125.949219-.882812 24.097656-24.101563 24.097656-63.328125 0-87.4375-18.710938-18.6875-46.679688-23.210938-69.871094-12.296875-23.175781-10.914063-51.167969-6.390625-69.871094 12.304687-24.097656 24.101563-24.097656 63.328125 0 87.429688.304688.304687.625.601562.949219.882812l58.5625 49.757813c2.984375 2.535156 6.671875 3.800781 10.359375 3.800781s7.375-1.265625 10.359375-3.808594zm-116.578125-23.929687c-11.207031-11.664063-11.078125-30.273438.410156-41.757813 8.382813-8.386718 20.597656-10.753906 31.246094-6.851562v14.097656c0 8.832031 7.167969 16 16 16s16-7.167969 16-16v-14.089844c10.648438-3.902344 22.863281-1.535156 31.246094 6.84375 11.488281 11.492188 11.617187 30.101563.410156 41.765625l-47.65625 40.488281zm0 0"/><path d="m273.9375 206.03125c9.191406-19.304688 14.0625-40.503906 14.0625-62.03125 0-79.398438-64.601562-144-144-144s-144 64.601562-144 144 64.601562 144 144 144c21.527344 0 42.71875-4.871094 62.03125-14.0625l96.015625 96.015625c9.058594 9.0625 21.121094 14.046875 33.953125 14.046875s24.894531-4.984375 33.960938-14.046875c18.703124-18.730469 18.703124-49.175781-.007813-67.90625zm-241.9375-62.03125c0-61.761719 50.238281-112 112-112s112 50.238281 112 112c0 20.03125-5.34375 39.710938-15.457031 56.894531-9.65625 16.296875-23.351563 29.992188-39.648438 39.648438-17.183593 10.113281-36.863281 15.457031-56.894531 15.457031-61.761719 0-112-50.238281-112-112zm315.328125 203.328125c-6.03125 6.03125-16.625 6.03125-22.65625 0l-90.792969-90.792969c8.359375-6.6875 15.96875-14.296875 22.65625-22.65625l90.785156 90.792969c6.246094 6.238281 6.246094 16.417969.007813 22.65625zm0 0"/></g></svg>