<?xml version="1.0" encoding="iso-8859-1"?>
<!-- Generator: Adobe Illustrator 19.0.0, SVG Export Plug-In . SVG Version: 6.00 Build 0)  -->
<svg version="1.1" id="Capa_1" xmlns="http://www.w3.org/2000/svg" xmlns:xlink="http://www.w3.org/1999/xlink" x="0px" y="0px"
	 viewBox="0 0 383.948 383.948" style="enable-background:new 0 0 383.948 383.948;" xml:space="preserve">
<path style="fill:#FF7043;" d="M275.437,60.428c31.68,31.76,46.48,74.08,44.24,115.6l-9.28,4.64c-8.48,4.24-17.68,6.32-26.72,6.32
	c-15.44,0-30.72-6-42.16-17.44c-15.76-15.76-21.36-38.88-14.72-60.08l22.16-70.16C258.397,45.228,267.277,52.268,275.437,60.428z"/>
<path style="fill:#4DD0E1;" d="M310.397,180.668l9.28-4.64c-1.92,36.16-16.72,71.84-44.24,99.44
	c-15.44,15.36-33.36,26.8-52.48,34.16l0.56-41.68c0-0.16,0-0.4,0-0.56c0-16.72-9.92-31.84-25.28-38.48
	c-17.84-7.6-38.48-2.08-50,13.44l-46.56,62.4c-14.96-7.2-28.88-16.96-41.28-29.28c-16.4-16.48-28.32-35.84-35.6-56.4
	c20.64-3.76,42.16-8.48,58.56-12.24c15.92-3.68,26.08-19.36,22.88-35.36l-3.12-15.44c-3.68-18.64,10.56-36.08,29.6-36.08
	c7.68,0,14.8-2.88,20.16-7.76c5.44-4.88,9.12-11.6,9.92-19.28l8.08-76.88c27.2,0.48,54.24,8.24,78.08,23.28l-22.16,70.16
	c-6.64,21.2-1.04,44.32,14.72,60.08c11.44,11.44,26.72,17.44,42.16,17.44C292.717,186.988,301.917,184.908,310.397,180.668z"/>
<g>
	<path style="fill:#FF7043;" d="M223.517,267.388c0,0.16,0,0.4,0,0.56l-0.56,41.68c-39.12,15.2-83.28,13.6-121.28-4.88l46.56-62.4
		c11.52-15.52,32.16-21.04,50-13.44C213.597,235.548,223.517,250.668,223.517,267.388z"/>
	<path style="fill:#FF7043;" d="M170.877,16.028l-8.08,76.88c-0.8,7.68-4.48,14.4-9.92,19.28c-5.36,4.88-12.48,7.76-20.16,7.76
		c-19.04,0-33.28,17.44-29.6,36.08l3.12,15.44c3.2,16-6.96,31.68-22.88,35.36c-16.4,3.76-37.92,8.48-58.56,12.24
		c-19.12-53.6-7.2-115.76,35.6-158.64C90.797,30.028,130.957,15.228,170.877,16.028z"/>
</g>
<path style="fill:#012E52;" d="M297.501,274.9c22.528-27.336,35.856-61.104,38.024-96.704c0.016-0.096,0.016-0.2,0.032-0.296
	c0.024-0.336,0.08-0.664,0.096-1.008c2.56-47.48-15.248-94.048-48.896-127.776c-8.88-8.872-18.736-16.736-29.256-23.336
	c-0.208-0.128-0.424-0.24-0.632-0.368c-0.064-0.032-0.12-0.072-0.184-0.104c-25.664-15.992-55.2-24.744-85.488-25.28
	C125.109-0.796,81.653,16.54,49.069,49.124C3.477,94.804-11.971,163.62,9.709,224.412c0.024,0.072,0.056,0.144,0.08,0.216
	c0.024,0.064,0.048,0.136,0.08,0.2c8.336,23.336,21.504,44.168,39.248,61.992c13.464,13.376,28.808,24.264,45.56,32.32
	c0.04,0.016,0.08,0.032,0.12,0.056c0.08,0.04,0.16,0.072,0.232,0.104c22.864,11.056,47.832,16.632,72.864,16.632
	c20.616,0,41.264-3.776,60.808-11.36c0.096-0.032,0.176-0.088,0.272-0.12c0.136-0.056,0.264-0.12,0.392-0.176
	c16.528-6.448,31.744-15.44,45.472-26.776l81.768,81.768c3.128,3.12,7.216,4.68,11.312,4.68s8.184-1.56,11.312-4.688
	c6.248-6.248,6.248-16.376,0-22.624L297.501,274.9z M303.709,166.116l-0.48,0.24c-6.048,3.024-12.816,4.632-19.552,4.632
	c-11.664,0-22.616-4.528-30.84-12.752c-11.52-11.528-15.648-28.384-10.776-43.952l15.336-48.56c2.264,1.976,4.592,3.88,6.72,6.008
	C289.197,96.876,303.245,130.868,303.709,166.116z M71.709,71.74c22.184-22.184,50.568-35.632,81.312-38.912l-6.144,58.416
	c-0.456,4.392-2.808,7.336-4.784,9.112c-2.528,2.32-5.864,3.592-9.376,3.592c-13.856,0-26.848,6.144-35.656,16.856
	c-8.824,10.728-12.336,24.696-9.632,38.392l3.112,15.408c1.496,7.456-3.352,14.912-10.768,16.632
	c-15.952,3.656-30.576,6.8-43.752,9.4C24.757,154.828,38.029,105.484,71.709,71.74z M47.541,230.948
	c12.112-2.456,25.216-5.28,39.424-8.536c24.536-5.672,39.896-29.432,34.96-54.12l-3.112-15.368
	c-0.832-4.192,0.256-8.504,2.976-11.808c1.592-1.928,5.12-5.168,10.928-5.168c11.504,0,22.488-4.24,30.84-11.848
	c8.584-7.704,13.968-18.192,15.152-29.512l6.456-61.44c15.568,1.96,30.656,6.592,44.624,13.728l-18.256,57.816
	c-8.464,27-1.304,56.192,18.672,76.176c14.264,14.272,33.256,22.128,53.472,22.128c5.392,0,10.776-0.656,16.056-1.8
	c-5.944,23.648-18.12,45.424-35.6,62.96c-7.592,7.552-15.936,13.976-24.824,19.456l0.216-16.216c0-23.12-13.712-43.992-35.008-53.2
	c-24.744-10.544-53.16-2.888-69.096,18.592l-38.248,51.264c-9.16-5.568-17.704-12.192-25.432-19.864
	C61.861,254.252,53.853,243.076,47.541,230.948z M127.061,297.484l34.024-45.608c7.112-9.576,19.808-12.984,30.808-8.288
	c9.496,4.104,15.632,13.448,15.632,24.136l-0.408,30.296C180.925,305.908,152.989,305.652,127.061,297.484z"/>
<g>
</g>
<g>
</g>
<g>
</g>
<g>
</g>
<g>
</g>
<g>
</g>
<g>
</g>
<g>
</g>
<g>
</g>
<g>
</g>
<g>
</g>
<g>
</g>
<g>
</g>
<g>
</g>
<g>
</g>
</svg>
