<svg height="384pt" viewBox="0 0 384 384" width="384pt" xmlns="http://www.w3.org/2000/svg"><path d="m296 32c30.878906 0 56 25.121094 56 56s-25.121094 56-56 56-56-25.121094-56-56 25.121094-56 56-56zm24 72c8.800781 0 16-7.199219 16-16 0-20.238281-16.480469-36.71875-36.71875-36.71875-8.800781 0-16 7.199219-16 16 0 8.878906 7.199219 16 16 16 2.640625 0 4.71875 2.160156 4.71875 4.71875 0 8.800781 7.199219 16 16 16zm0 0" fill="#ff7043"/><path d="m88 32c30.878906 0 56 25.121094 56 56s-25.121094 56-56 56-56-25.121094-56-56 25.121094-56 56-56zm24 72c8.800781 0 16-7.199219 16-16 0-20.238281-16.480469-36.71875-36.71875-36.71875-8.800781 0-16 7.199219-16 16 0 8.878906 7.199219 16 16 16 2.640625 0 4.71875 2.160156 4.71875 4.71875 0 8.800781 7.199219 16 16 16zm0 0" fill="#4dd0e1"/><g fill="#012e52"><path d="m296 0c-43.039062 0-78.878906 31.121094-86.480469 72h-35.039062c-7.601563-40.878906-43.441407-72-86.480469-72-48.558594 0-88 39.441406-88 88s39.441406 88 88 88c43.039062 0 78.878906-31.121094 86.480469-72h35.039062c7.601563 40.878906 43.441407 72 86.480469 72 21.28125 0 40.800781-7.601562 56-20.160156v212.160156c0 8.800781 7.199219 16 16 16s16-7.199219 16-16v-280c0-48.558594-39.441406-88-88-88zm-208 144c-30.878906 0-56-25.121094-56-56s25.121094-56 56-56 56 25.121094 56 56-25.121094 56-56 56zm208 0c-30.878906 0-56-25.121094-56-56s25.121094-56 56-56 56 25.121094 56 56-25.121094 56-56 56zm0 0"/><path d="m299.28125 51.28125c-8.800781 0-16 7.199219-16 16 0 8.878906 7.199219 16 16 16 2.640625 0 4.71875 2.160156 4.71875 4.71875 0 8.800781 7.199219 16 16 16s16-7.199219 16-16c0-20.238281-16.480469-36.71875-36.71875-36.71875zm0 0"/><path d="m91.28125 51.28125c-8.800781 0-16 7.199219-16 16 0 8.878906 7.199219 16 16 16 2.640625 0 4.71875 2.160156 4.71875 4.71875 0 8.800781 7.199219 16 16 16s16-7.199219 16-16c0-20.238281-16.480469-36.71875-36.71875-36.71875zm0 0"/></g></svg>