<svg height="384pt" viewBox="-48 0 384 384" width="384pt" xmlns="http://www.w3.org/2000/svg"><path d="m144 280c17.679688 0 32-14.320312 32-32s-14.320312-32-32-32-32 14.320312-32 32 14.320312 32 32 32zm128-104v176c0 8.800781-7.199219 16-16 16h-224c-8.800781 0-16-7.199219-16-16v-176c0-8.800781 7.199219-16 16-16h224c8.800781 0 16 7.199219 16 16zm0 0" fill="#4dd0e1"/><path d="m176 248c0 17.671875-14.328125 32-32 32s-32-14.328125-32-32 14.328125-32 32-32 32 14.328125 32 32zm0 0" fill="#ff7043"/><g fill="#012e52"><path d="m224 112c8.832031 0 16-7.167969 16-16v-32c0-35.289062-28.710938-64-64-64h-64c-35.289062 0-64 28.710938-64 64v80h-16c-17.648438 0-32 14.351562-32 32v176c0 17.648438 14.351562 32 32 32h224c17.648438 0 32-14.351562 32-32v-176c0-17.648438-14.351562-32-32-32h-176v-80c0-17.648438 14.351562-32 32-32h64c17.648438 0 32 14.351562 32 32v32c0 8.832031 7.167969 16 16 16zm32 240h-224l.046875-176h223.953125zm0 0"/><path d="m128 293.199219v18.800781c0 8.832031 7.167969 16 16 16s16-7.167969 16-16v-18.800781c18.617188-6.605469 32-24.34375 32-45.199219 0-26.472656-21.527344-48-48-48s-48 21.527344-48 48c0 20.855469 13.382812 38.59375 32 45.199219zm16-61.199219c8.824219 0 16 7.175781 16 16s-7.175781 16-16 16-16-7.175781-16-16 7.175781-16 16-16zm0 0"/></g></svg>