<svg height="383pt" viewBox="0 -39 383.9619 383" width="383pt" xmlns="http://www.w3.org/2000/svg"><path d="m271.988281 154.5625c19.84375-15.28125 47.363281-13.121094 65.121094 6.320312 2.160156 2.398438 4.082031 4.878907 5.679687 7.597657 9.441407 14.640625 11.601563 33.199219 6.5625 49.761719-3.363281 11.117187-10.402343 20.480468-19.203124 27.039062l-58.160157 43.199219-58.15625-43.199219c-8.800781-6.558594-15.84375-15.921875-19.203125-27.039062-1.757812-5.761719-2.640625-11.839844-2.640625-17.839844 0-14.320313 4.960938-28.5625 14.882813-39.519532 17.757812-19.441406 45.277344-21.601562 65.117187-6.320312zm0 0" fill="#ff7043"/><path d="m111.988281 154.5625c19.84375-15.28125 47.363281-13.121094 65.121094 6.320312 9.921875 10.957032 14.878906 25.199219 14.878906 39.519532 0 6-.878906 12.078125-2.636719 17.839844-3.363281 11.117187-10.402343 20.480468-19.203124 27.039062l-58.160157 43.199219-58.15625-43.199219c-8.800781-6.558594-15.84375-15.921875-19.203125-27.039062-5.039062-16.5625-2.878906-35.121094 6.5625-49.761719 1.597656-2.71875 3.519532-5.199219 5.679688-7.597657 17.757812-19.441406 45.277344-21.601562 65.117187-6.320312zm0 0" fill="#ff7043"/><path d="m338.78125 22.890625c-4.214844-13.402344-16.488281-22.410156-30.550781-22.410156h-20.242188c-8.828125 0-16 7.167969-16 16s7.171875 16 16 16l20.371094.328125 39.222656 116.023437c-20.566406-21.375-50.640625-26.3125-75.59375-13.222656-25.460937-13.367187-56.34375-8.054687-76.980469 14.527344-1.066406 1.175781-2.035156 2.425781-3.019531 3.671875-1-1.261719-1.980469-2.535156-3.070312-3.726563-20.589844-22.527343-51.457031-27.839843-76.9375-14.472656-24.933594-13.089844-54.949219-8.152344-75.582031 13.214844l39.351562-116.34375h20.238281c8.832031 0 16-7.167969 16-16s-7.167969-16-16-16h-20.238281c-14.070312 0-26.351562 9.015625-30.441406 22.082031l-44.125 130.527344c-2.378906 7.253906-1.1289065 15.277344 3.359375 21.472656 3.277343 4.535156 8.0625 7.695312 13.382812 9.085938-2.855469 12.808593-2.503906 26.425781 1.382813 39.214843 4.1875 13.859375 13.050781 26.378907 24.976562 35.257813l58.160156 43.199218c2.839844 2.105469 6.191407 3.160157 9.542969 3.160157 3.355469 0 6.707031-1.054688 9.539063-3.160157l58.175781-43.207031c4.648437-3.464843 8.664063-7.609375 12.285156-12.039062 3.625 4.4375 7.648438 8.582031 12.304688 12.046875l58.160156 43.199218c2.824219 2.105469 6.183594 3.160157 9.535156 3.160157 3.355469 0 6.714844-1.054688 9.539063-3.160157l58.167968-43.207031c11.910157-8.871093 20.78125-21.390625 24.949219-35.214843 3.898438-12.808594 4.257813-26.441407 1.410157-39.25 5.320312-1.398438 10.09375-4.550782 13.375-9.085938 4.488281-6.1875 5.746093-14.210938 3.3125-21.601562zm-164.75 190.726563c-2.21875 7.34375-6.992188 14.03125-13.425781 18.824218l-48.617188 36.113282-48.597656-36.113282c-6.457031-4.800781-11.222656-11.488281-13.457031-18.855468-3.765625-12.402344-2.007813-26.015626 5.039062-36.984376.9375-1.578124 2.167969-3.214843 3.707032-4.921874 6.789062-7.429688 15.46875-11.238282 24.199218-11.238282 4.4375 0 8.878906 1.085938 13.101563 3.078125v12.960938c0 8.832031 7.167969 16 16 16s16-7.167969 16-16v-12.984375c12.53125-5.917969 27.066406-3.046875 37.257812 8.113281 6.9375 7.664063 10.75 17.886719 10.75 28.792969 0 4.453125-.671875 9.007812-1.957031 13.214844zm160 0c-2.210938 7.34375-6.984375 14.03125-13.425781 18.824218l-48.617188 36.113282-48.597656-36.113282c-6.457031-4.800781-11.222656-11.488281-13.464844-18.878906-1.261719-4.152344-1.9375-8.707031-1.9375-13.160156 0-10.90625 3.816407-21.136719 10.699219-28.738282 6.789062-7.421874 15.472656-11.230468 24.191406-11.230468 4.449219 0 8.878906 1.085937 13.109375 3.078125v12.96875c0 8.832031 7.171875 16 16 16 8.832031 0 16-7.167969 16-16v-12.984375c12.539063-5.925782 27.066407-3.039063 37.234375 8.105468 1.617188 1.792969 2.839844 3.414063 3.757813 4.976563.121093.191406.234375.390625.363281.574219 6.71875 10.417968 8.476562 24.03125 4.6875 36.464844zm0 0" fill="#012e52"/></svg>