<?xml version="1.0" encoding="iso-8859-1"?>
<!-- Generator: Adobe Illustrator 19.0.0, SVG Export Plug-In . SVG Version: 6.00 Build 0)  -->
<svg version="1.1" id="Capa_1" xmlns="http://www.w3.org/2000/svg" xmlns:xlink="http://www.w3.org/1999/xlink" x="0px" y="0px"
	 viewBox="0 0 384 384" style="enable-background:new 0 0 384 384;" xml:space="preserve">
<path style="fill:#4DD0E1;" d="M304,104h64v248H16V104h64l64-72h96L304,104z M248,232c0-30.96-25.04-56-56-56s-56,25.04-56,56
	s25.04,56,56,56S248,262.96,248,232z"/>
<circle style="fill:#FF7043;" cx="192" cy="232" r="56"/>
<polygon style="fill:#E0F7FA;" points="80,104 144,32 240,32 304,104 "/>
<g>
	<path style="fill:#012E52;" d="M368,88h-56.816L251.96,21.368C248.92,17.952,244.568,16,240,16h-96
		c-4.568,0-8.92,1.952-11.96,5.368L72.816,88H16c-8.832,0-16,7.168-16,16v248c0,8.832,7.168,16,16,16h352c8.832,0,16-7.168,16-16
		V104C384,95.168,376.832,88,368,88z M352,336H32V120h48c4.568,0,8.92-1.952,11.96-5.368L151.184,48h81.624l35.552,40H160
		c-8.832,0-16,7.168-16,16s7.168,16,16,16h143.936c0.048,0,0.096,0,0.144,0H352V336z"/>
	<path style="fill:#012E52;" d="M192,160c-39.704,0-72,32.304-72,72s32.296,72,72,72s72-32.304,72-72S231.704,160,192,160z M192,272
		c-22.056,0-40-17.944-40-40s17.944-40,40-40s40,17.944,40,40S214.056,272,192,272z"/>
	<path style="fill:#012E52;" d="M280,160c0,8.832,7.168,16,16,16h16c8.832,0,16-7.168,16-16s-7.168-16-16-16h-16
		C287.168,144,280,151.168,280,160z"/>
</g>
<g>
</g>
<g>
</g>
<g>
</g>
<g>
</g>
<g>
</g>
<g>
</g>
<g>
</g>
<g>
</g>
<g>
</g>
<g>
</g>
<g>
</g>
<g>
</g>
<g>
</g>
<g>
</g>
<g>
</g>
</svg>
