<svg height="384pt" viewBox="0 0 384 384" width="384pt" xmlns="http://www.w3.org/2000/svg"><path d="m144 192v-160c0-8.800781 7.199219-16 16-16h192c8.800781 0 16 7.199219 16 16v320c0 8.800781-7.199219 16-16 16h-192c-8.800781 0-16-7.199219-16-16zm0 0" fill="#4dd0e1"/><path d="m352 0h-192c-17.648438 0-32 14.351562-32 32v144h-112c-8.832031 0-16 7.167969-16 16s7.167969 16 16 16h112v144c0 17.648438 14.351562 32 32 32h192c17.648438 0 32-14.351562 32-32v-320c0-17.648438-14.351562-32-32-32zm-.046875 352h-191.953125v-144h64.910156l-21.925781 30.703125c-5.136719 7.183594-3.472656 17.175781 3.71875 22.320313 2.816406 2.007812 6.066406 2.976562 9.289063 2.976562 4.992187 0 9.910156-2.328125 13.03125-6.703125l40-56c.320312-.449219.535156-.9375.800781-1.402344.121093-.207031.296875-.359375.398437-.574219.058594-.113281.066406-.230468.121094-.34375.585938-1.199218 1.03125-2.433593 1.296875-3.703124.039063-.183594.039063-.371094.070313-.554688.191406-1.109375.257812-2.222656.210937-3.335938-.019531-.351562-.042969-.703124-.074219-1.054687-.121094-1.160156-.351562-2.304687-.71875-3.417969-.039062-.125-.058594-.253906-.105468-.375-.449219-1.230468-1.085938-2.390625-1.832032-3.503906-.070312-.101562-.101562-.230469-.175781-.335938l-40-56c-5.136719-7.199218-15.136719-8.847656-22.320313-3.726562-7.191406 5.144531-8.855468 15.136719-3.71875 22.320312l21.933594 30.710938h-64.910156v-144h192zm.046875 16v-16zm0 0" fill="#012e52"/></svg>