<svg height="384pt" viewBox="0 0 384 384.10925" width="384pt" xmlns="http://www.w3.org/2000/svg"><path d="m192 36.1875c43.679688-30.558594 104.242188-26.238281 143.199219 12.722656 43.761719 43.757813 43.761719 114.640625 0 158.398438l-143.199219 160.800781-143.199219-160.800781c-43.761719-43.757813-43.761719-114.640625 0-158.398438 38.960938-38.960937 99.519531-43.28125 143.199219-12.722656zm0 0" fill="#4dd0e1"/><path d="m180.058594 378.75c3.03125 3.40625 7.382812 5.359375 11.941406 5.359375 4.5625 0 8.914062-1.953125 11.945312-5.359375l142.902344-160.464844c49.578125-49.9375 49.464844-130.886718-.335937-180.6875-41.382813-41.390625-104.800781-49.25-154.511719-20.375-49.71875-28.855468-113.121094-21.015625-154.511719 20.375-49.800781 49.800782-49.910156 130.75-.335937 180.6875zm-119.945313-318.527344c18.640625-18.640625 43.207031-28.210937 67.945313-28.210937 13.308594 0 26.644531 2.839843 39.140625 8.472656l-6.054688 7.050781c-4.207031 4.902344-6.230469 11.148438-5.695312 17.605469.527343 6.457031 3.566406 12.296875 8.558593 16.472656l27.023438 22.496094-25.085938 20.878906c-5.839843 4.914063-8.953124 12.097657-8.535156 19.714844.40625 7.589844 4.246094 14.375 10.589844 18.636719l19.144531 12.769531-17.863281 11.945313c-6.808594 4.429687-10.878906 11.925781-10.878906 20.054687s4.070312 15.625 10.71875 19.953125l38 25.359375c2.726562 1.816406 5.808594 2.6875 8.863281 2.6875 5.167969 0 10.242187-2.496094 13.320313-7.121094 4.902343-7.351562 2.929687-17.285156-4.425782-22.191406l-28.023437-18.6875 17.867187-11.945313c6.804688-4.429687 10.878906-11.925781 10.878906-20.054687s-4.074218-15.625-10.722656-19.953125l-20.183594-13.472656 24.195313-20.125c5.484375-4.578125 8.621094-11.304688 8.621094-18.449219s-3.144531-13.871094-8.640625-18.457031l-28.160156-23.4375 11.90625-13.839844c37.96875-25.570312 88.6875-20.738281 121.261718 11.847656 37.433594 37.429688 37.433594 98.335938 0 135.773438-.214844.21875-.429687.441406-.628906.671875l-131.25 147.386719-131.253906-147.386719c-.203125-.230469-.417969-.453125-.632813-.671875-37.433593-37.429688-37.433593-98.34375 0-135.773438zm0 0" fill="#012e52"/></svg>