<svg height="384pt" viewBox="0 0 384.71947 384" width="384pt" xmlns="http://www.w3.org/2000/svg"><path d="m277.757812 107.238281c-21.4375-3.757812-37.757812-22.558593-37.757812-45.117187.078125-25.28125 20.558594-45.761719 45.839844-45.761719h82.160156l.71875 82.800781c0 25.359375-20.558594 45.839844-45.839844 45.839844-22.558594 0-41.28125-16.242188-45.121094-37.761719zm0 0" fill="#ff7043"/><path d="m160 224.441406v71.917969l-72 72 .078125-72h-72.078125l72-72h72zm0 0" fill="#4dd0e1"/><path d="m368 .359375h-82.160156c-33.992188 0-61.738282 27.679687-61.839844 61.761719 0 20.582031 10.113281 38.964844 25.902344 50.253906l-96.503906 95.984375h-65.398438c-4.242188 0-8.3125 1.6875-11.3125 4.6875l-72 72c-4.574219 4.578125-5.945312 11.457031-3.472656 17.441406 2.480468 5.976563 8.3125 9.871094 14.785156 9.871094h56.0625l-.0625 55.984375c-.007812 6.480469 3.886719 12.3125 9.863281 14.800781 1.992188.816407 4.070313 1.214844 6.136719 1.214844 4.167969 0 8.253906-1.625 11.320312-4.6875l72-72c2.992188-3 4.679688-7.070313 4.679688-11.3125v-65.351563l96.574219-96.054687c11.296875 15.878906 29.714843 26.046875 50.304687 26.046875 34.097656 0 61.839844-27.746094 61.839844-61.984375l-.71875-82.800781c-.082031-8.773438-7.214844-15.855469-16-15.855469zm-224 289.375-39.960938 39.953125.039063-33.3125c0-4.238281-1.679687-8.320312-4.679687-11.320312-3-3.007813-7.070313-4.695313-11.320313-4.695313h-33.445313l40-40h49.367188zm178.878906-160.734375c-11.894531 0-22.261718-7.039062-27.023437-17.433594l11.703125-12.0625c6.160156-6.34375 6-16.472656-.335938-22.625-6.328125-6.160156-16.472656-6.007812-22.625.335938l-11.460937 11.816406c-10.226563-4.785156-17.136719-15.070312-17.136719-26.863281.054688-16.433594 13.441406-29.808594 29.839844-29.808594h66.296875l.582031 66.800781c0 16.457032-13.382812 29.839844-29.839844 29.839844zm0 0" fill="#012e52"/></svg>