<svg id="Layer" enable-background="new 0 0 64 64" height="512" viewBox="0 0 64 64" width="512" xmlns="http://www.w3.org/2000/svg"><path d="m40 38-8.46 15.99c-11.94-.24-21.54-9.99-21.54-21.99 0-5.9 2.32-11.25 6.09-15.2l5.91 15.2c0 5.52 4.48 10 10 10 3.27 0 6.17-1.57 8-4z" fill="#4dd0e1"/><path d="m51.6 22c1.54 3 2.4 6.4 2.4 10 0 12.15-9.85 22-22 22-.15 0-.31 0-.46-.01l8.46-15.99c1.25-1.67 2-3.75 2-6 0-5.52-4.48-10-10-10z" fill="#ff8a65"/><path d="m51.6 22h-19.6c-5.52 0-10 4.48-10 10l-5.91-15.2c4.01-4.19 9.66-6.8 15.91-6.8 8.55 0 15.96 4.88 19.6 12z" fill="#ff7043"/><path d="m42 32c0 2.25-.75 4.33-2 6-1.83 2.43-4.73 4-8 4-5.52 0-10-4.48-10-10s4.48-10 10-10 10 4.48 10 10zm-9 0c0-.55-.45-1-1-1s-1 .45-1 1 .45 1 1 1 1-.45 1-1z" fill="#e0f7fa"/><g fill="#012e52"><path d="m32 8c-6.586 0-12.725 2.614-17.298 7.36-.003.003-.007.007-.01.01-.016.017-.033.032-.049.049-4.284 4.489-6.643 10.378-6.643 16.581 0 12.954 10.521 23.707 23.46 23.989.025.001.05 0 .075.002h.003.002c.153.006.309.009.46.009 13.233 0 24-10.766 24-24 0-3.799-.906-7.573-2.619-10.91-4.128-8.074-12.32-13.09-21.381-13.09zm15.991 12h-15.991c-4.351 0-8.156 2.335-10.261 5.81l-3.299-8.484c3.707-3.431 8.466-5.326 13.56-5.326 6.389 0 12.251 3.001 15.991 8zm-7.991 12c0 1.742-.554 3.402-1.598 4.797-1.533 2.036-3.866 3.203-6.402 3.203-4.411 0-8-3.589-8-8s3.589-8 8-8 8 3.589 8 8zm-28 0c0-4.061 1.23-7.951 3.48-11.25l4.542 11.682c.23 6.416 5.507 11.568 11.978 11.568.932 0 1.845-.108 2.728-.312l-4.348 8.217c-10.237-.831-18.38-9.505-18.38-19.905zm22.987 19.752 6.73-12.721c1.491-2.062 2.283-4.486 2.283-7.031 0-3.075-1.172-5.874-3.081-8h9.418c1.104 2.511 1.663 5.197 1.663 8 0 10.01-7.4 18.302-17.013 19.752z"/><path d="m32 35c1.654 0 3-1.346 3-3s-1.346-3-3-3-3 1.346-3 3 1.346 3 3 3z"/></g></svg>