<svg id="Layer" enable-background="new 0 0 64 64" height="512" viewBox="0 0 64 64" width="512" xmlns="http://www.w3.org/2000/svg"><path d="m54 22v20c0 6.63-5.37 12-12 12h-6v-10h8l1.94-6.65c.24-.65-.24-1.35-.94-1.35h-9v-6c0-1.1.9-2 2-2h8v-8h-10c-4.42 0-8 3.58-8 8v8h-6v8h6v10h-6c-6.63 0-12-5.37-12-12v-20c0-6.63 5.37-12 12-12h20c6.63 0 12 5.37 12 12z" fill="#4dd0e1"/><path d="m46 20v8h-8c-1.1 0-2 .9-2 2v6h9c.7 0 1.18.7.94 1.35l-1.94 6.65h-8v10h-8v-10h-6v-8h6v-8c0-4.42 3.58-8 8-8z" fill="#e0f7fa"/><path d="m42 8h-20c-7.72 0-14 6.28-14 14v20c0 7.72 6.28 14 14 14h20c7.72 0 14-6.28 14-14v-20c0-7.72-6.28-14-14-14zm-12 36c0-1.104-.896-2-2-2h-4v-4h4c1.104 0 2-.896 2-2v-8c0-3.309 2.691-6 6-6h8v4h-6c-2.206 0-4 1.794-4 4v6c0 1.104.896 2 2 2h7.667l-1.167 4h-6.5c-1.104 0-2 .896-2 2v8h-4zm22-2c0 5.514-4.486 10-10 10h-4v-6h6c.889 0 1.671-.586 1.92-1.44l1.927-6.602c.301-.899.159-1.893-.386-2.674-.561-.804-1.481-1.284-2.461-1.284h-7v-4h8c1.104 0 2-.896 2-2v-8c0-1.104-.896-2-2-2h-10c-5.514 0-10 4.486-10 10v6h-4c-1.104 0-2 .896-2 2v8c0 1.104.896 2 2 2h4v6h-4c-5.514 0-10-4.486-10-10v-20c0-5.514 4.486-10 10-10h20c5.514 0 10 4.486 10 10z" fill="#012e52"/></svg>