<svg id="Layer" enable-background="new 0 0 64 64" height="512" viewBox="0 0 64 64" width="512" xmlns="http://www.w3.org/2000/svg"><path d="m38 32c0-1.66-.67-3.16-1.76-4.24-1.08-1.09-2.58-1.76-4.24-1.76s-3.16.67-4.24 1.76c-1.09 1.08-1.76 2.58-1.76 4.24s.67 3.16 1.76 4.24c1.08 1.09 2.58 1.76 4.24 1.76s3.16-.67 4.24-1.76c1.09-1.08 1.76-2.58 1.76-4.24zm-6-22c12.15 0 22 9.85 22 22s-9.85 22-22 22-22-9.85-22-22 9.85-22 22-22z" fill="#4dd0e1"/><path d="m36.24 27.76c1.09 1.08 1.76 2.58 1.76 4.24s-.67 3.16-1.76 4.24c-1.08 1.09-2.58 1.76-4.24 1.76s-3.16-.67-4.24-1.76c-1.09-1.08-1.76-2.58-1.76-4.24s.67-3.16 1.76-4.24c1.08-1.09 2.58-1.76 4.24-1.76s3.16.67 4.24 1.76z" fill="#4dd0e1"/><g fill="#012e52"><path d="m32 8c-13.234 0-24 10.767-24 24s10.766 24 24 24 24-10.767 24-24-10.766-24-24-24zm0 44c-11.028 0-20-8.972-20-20s8.972-20 20-20 20 8.972 20 20-8.972 20-20 20z"/><path d="m42 30h-2.259c-.186-.727-.472-1.418-.852-2.06l1.596-1.596c.781-.781.781-2.048 0-2.828-.781-.781-2.047-.781-2.829 0l-1.596 1.596c-.643-.381-1.334-.667-2.059-.853v-2.259c0-1.104-.896-2-2-2s-2 .896-2 2v2.259c-.727.186-1.418.472-2.06.852l-1.595-1.595c-.781-.781-2.047-.781-2.829 0-.781.78-.781 2.047 0 2.828l1.597 1.597c-.381.643-.667 1.334-.853 2.059h-2.261c-1.104 0-2 .896-2 2s.896 2 2 2h2.259c.186.727.472 1.418.852 2.06l-1.596 1.596c-.781.781-.781 2.048 0 2.828.391.391.902.586 1.414.586s1.024-.195 1.415-.586l1.596-1.596c.643.381 1.334.667 2.059.853v2.259c0 1.104.896 2 2 2s2-.896 2-2v-2.259c.727-.186 1.418-.472 2.06-.852l1.595 1.596c.391.391.903.586 1.415.586s1.023-.195 1.414-.586c.781-.78.781-2.047 0-2.828l-1.597-1.597c.381-.643.667-1.334.853-2.059h2.261c1.104 0 2-.896 2-2s-.896-2.001-2-2.001zm-10 6c-1.072 0-2.073-.415-2.833-1.181-.752-.746-1.167-1.747-1.167-2.819s.415-2.073 1.18-2.832c.747-.753 1.748-1.168 2.82-1.168s2.073.415 2.833 1.181c.752.746 1.167 1.747 1.167 2.819s-.415 2.073-1.18 2.832c-.747.753-1.748 1.168-2.82 1.168z"/></g></svg>