<svg height="384pt" viewBox="-32 0 384 384" width="384pt" xmlns="http://www.w3.org/2000/svg"><path d="m304 96v48h-288v-48c0-8.800781 7.199219-16 16-16h256c8.800781 0 16 7.199219 16 16zm0 0" fill="#ff7043"/><path d="m264 144v208c0 8.800781-7.199219 16-16 16h-176c-8.800781 0-16-7.199219-16-16v-208zm0 0" fill="#4dd0e1"/><g fill="#012e52"><path d="m72 384h176c17.648438 0 32-14.351562 32-32v-192h24c8.832031 0 16-7.167969 16-16v-48c0-17.648438-14.351562-32-32-32h-64v-32c0-17.648438-14.351562-32-32-32h-64c-17.648438 0-32 14.351562-32 32v32h-64c-17.648438 0-32 14.351562-32 32v48c0 8.832031 7.167969 16 16 16h24v192c0 17.648438 14.351562 32 32 32zm176-32h-176v-192h176zm-120-320h64v32h-64zm-96 64h256v32h-256zm0 0"/><path d="m200 320c8.832031 0 16-7.167969 16-16v-96c0-8.832031-7.167969-16-16-16s-16 7.167969-16 16v96c0 8.832031 7.167969 16 16 16zm0 0"/><path d="m120 320c8.832031 0 16-7.167969 16-16v-96c0-8.832031-7.167969-16-16-16s-16 7.167969-16 16v96c0 8.832031 7.167969 16 16 16zm0 0"/></g></svg>