<svg height="384pt" viewBox="-64 0 384 384" width="384pt" xmlns="http://www.w3.org/2000/svg"><path d="m200 255.199219v112.800781c0-39.761719-32.238281-72-72-72s-72 32.238281-72 72v-112.800781c0-18.960938 11.199219-36.160157 28.480469-43.839844l43.519531-19.359375 43.519531 19.359375c17.28125 7.679687 28.480469 24.878906 28.480469 43.839844zm0 0" fill="#4dd0e1"/><path d="m200 16v112.800781c0 18.960938-11.199219 36.160157-28.480469 43.839844l-43.519531 19.359375-43.519531-19.359375c-17.28125-7.679687-28.480469-24.878906-28.480469-43.839844v-112.800781zm0 0" fill="#4dd0e1"/><path d="m200 368h-144c0-39.761719 32.238281-72 72-72s72 32.238281 72 72zm0 0" fill="#ff7043"/><path d="m216 128.800781v-96.800781h24c8.832031 0 16-7.167969 16-16s-7.167969-16-16-16h-224c-8.832031 0-16 7.167969-16 16s7.167969 16 16 16h24v96.800781c0 25.261719 14.910156 48.207031 37.976562 58.464844l10.65625 4.734375-10.648437 4.734375c-23.074219 10.257813-37.984375 33.203125-37.984375 58.464844v96.800781h-24c-8.832031 0-16 7.167969-16 16s7.167969 16 16 16h224c8.832031 0 16-7.167969 16-16s-7.167969-16-16-16h-24v-96.800781c0-25.261719-14.910156-48.207031-37.976562-58.464844l-10.65625-4.734375 10.648437-4.734375c23.074219-10.257813 37.984375-33.203125 37.984375-58.464844zm-141.640625 223.199219c6.90625-23.105469 28.328125-40 53.640625-40s46.734375 16.894531 53.640625 40zm109.640625-96.800781v44.96875c-15.222656-12.59375-34.742188-20.167969-56-20.167969s-40.777344 7.574219-56 20.167969v-44.96875c0-12.625 7.449219-24.101563 18.984375-29.222657l37.015625-16.472656 37.023438 16.480469c11.527343 5.121094 18.976562 16.589844 18.976562 29.214844zm-18.984375-97.175781-37.015625 16.472656-37.023438-16.480469c-11.527343-5.121094-18.976562-16.589844-18.976562-29.214844v-96.800781h112v96.800781c0 12.625-7.449219 24.09375-18.984375 29.222657zm0 0" fill="#012e52"/></svg>