<svg height="384pt" viewBox="-16 0 384 384" width="384pt" xmlns="http://www.w3.org/2000/svg"><path d="m16 16h256v352h-256zm0 0" fill="#4dd0e1"/><path d="m318.480469 212c16.078125 8.878906 22.160156 29.679688 13.679687 46.398438-8.558594 16.640624-60.160156 61.601562-60.160156 61.601562s-51.601562-44.960938-60.160156-61.601562c-8.480469-16.71875-2.398438-37.519532 13.679687-46.398438 16.082031-8.878906 36.082031-2.480469 44.640625 14.238281.800782 1.363281 1.359375 3.121094 1.839844 5.121094.480469-2 1.039062-3.757813 1.839844-5.121094 8.558594-16.71875 28.558594-23.117187 44.640625-14.238281zm0 0" fill="#e0f7fa"/><path d="m16 16h256v64h-256zm0 0" fill="#ff7043"/><g fill="#012e52"><path d="m160 352h-128v-320h224v64c0 8.832031 7.167969 16 16 16s16-7.167969 16-16v-80c0-8.832031-7.167969-16-16-16h-256c-8.832031 0-16 7.167969-16 16v352c0 8.832031 7.167969 16 16 16h144c8.832031 0 16-7.167969 16-16s-7.167969-16-16-16zm0 0"/><path d="m136 64h-64c-8.832031 0-16 7.167969-16 16s7.167969 16 16 16h64c8.832031 0 16-7.167969 16-16s-7.167969-16-16-16zm0 0"/><path d="m136 120h-64c-8.832031 0-16 7.167969-16 16s7.167969 16 16 16h64c8.832031 0 16-7.167969 16-16s-7.167969-16-16-16zm0 0"/><path d="m136 176h-64c-8.832031 0-16 7.167969-16 16s7.167969 16 16 16h64c8.832031 0 16-7.167969 16-16s-7.167969-16-16-16zm0 0"/><path d="m136 232h-64c-8.832031 0-16 7.167969-16 16s7.167969 16 16 16h64c8.832031 0 16-7.167969 16-16s-7.167969-16-16-16zm0 0"/><path d="m200 64c-8.832031 0-16 7.167969-16 16s7.167969 16 16 16h16c8.832031 0 16-7.167969 16-16s-7.167969-16-16-16zm0 0"/><path d="m216 152c8.832031 0 16-7.167969 16-16s-7.167969-16-16-16h-16c-8.832031 0-16 7.167969-16 16s7.167969 16 16 16zm0 0"/><path d="m326.207031 197.992188c-11.464843-6.328126-24.664062-7.71875-37.160156-3.894532-6.328125 1.933594-12.085937 5.078125-17.046875 9.230469-4.960938-4.152344-10.71875-7.296875-17.054688-9.230469-12.511718-3.816406-25.6875-2.425781-37.160156 3.894532-23.496094 12.976562-32.5625 43.320312-20.167968 67.71875 9.480468 18.441406 54.863281 58.503906 63.871093 66.351562.191407.167969.40625.28125.601563.433594.34375.273437.695312.519531 1.054687.761718.550781.367188 1.121094.695313 1.695313.988282.359375.1875.710937.363281 1.089844.515625.671874.269531 1.351562.476562 2.046874.664062.3125.078125.617188.191407.933594.246094 1.019532.207031 2.050782.328125 3.082032.328125h.007812.007812c1.03125 0 2.0625-.121094 3.082032-.320312.316406-.0625.613281-.167969.933594-.246094.695312-.175782 1.375-.386719 2.046874-.664063.371094-.152343.730469-.335937 1.089844-.511719.582032-.296874 1.144532-.617187 1.695313-.992187.359375-.242187.710937-.488281 1.054687-.761719.203125-.152344.417969-.273437.601563-.433594 9.007812-7.839843 54.398437-47.910156 63.914062-66.421874 12.351563-24.335938 3.277344-54.679688-20.21875-67.65625zm-8.277343 53.097656c-3.777344 7.335937-25.035157 28.582031-45.929688 47.503906-20.894531-18.921875-42.144531-40.152344-45.886719-47.433594-4.632812-9.136718-1.433593-20.417968 7.152344-25.152344 3.804687-2.097656 8.175781-2.566406 12.335937-1.304687 4.4375 1.351563 8.101563 4.488281 10.496094 9.097656.140625.382813.238282.816407.351563 1.269531.070312.304688.214843.578126.304687.875.167969.542969.335938 1.078126.558594 1.605469.199219.480469.429688.9375.679688 1.394531.238281.445313.488281.878907.769531 1.300782.300781.449218.621093.867187.964843 1.28125.320313.382812.640626.753906.992188 1.105468.371094.367188.753906.703126 1.152344 1.03125.402344.328126.808594.640626 1.242187.9375.429688.285157.871094.542969 1.328125.78125.445313.242188.902344.472657 1.382813.679688.519531.21875 1.046875.394531 1.589843.554688.304688.085937.585938.230468.898438.3125.175781.039062.34375.03125.511719.070312.542969.113281 1.097656.167969 1.65625.222656.519531.050782 1.039062.105469 1.558593.105469.480469 0 .960938-.054687 1.449219-.097656.589844-.054688 1.175781-.109375 1.742188-.230469.167969-.03125.335937-.023438.503906-.0625.304687-.074219.578125-.21875.882813-.304688.542968-.167968 1.078124-.335937 1.597656-.5625.480468-.199218.9375-.4375 1.394531-.679687.445313-.238281.886719-.488281 1.300781-.773437.441406-.296876.859375-.617188 1.265625-.953126.390625-.320312.769531-.65625 1.128907-1.015624.359374-.359376.6875-.738282 1.015624-1.128907.335938-.40625.65625-.816406.953126-1.253906.285156-.425781.535156-.867187.773437-1.3125.25-.457031.480469-.90625.679687-1.394531.226563-.519532.394532-1.0625.5625-1.605469.085938-.296875.230469-.570313.304688-.875.070312-.308594.148438-.597656.109375-.652344.015625-.089843.058594-.167969.074219-.265625.117187-.207031.238281-.40625.34375-.617187 2.214844-4.34375 5.878906-7.480469 10.320312-8.832031 4.152344-1.261719 8.527344-.800782 12.335938 1.304687 8.542968 4.726563 11.742187 16.007813 7.152344 25.074219zm0 0"/></g></svg>