<?xml version="1.0" encoding="iso-8859-1"?>
<!-- Generator: Adobe Illustrator 19.0.0, SVG Export Plug-In . SVG Version: 6.00 Build 0)  -->
<svg version="1.1" id="Capa_1" xmlns="http://www.w3.org/2000/svg" xmlns:xlink="http://www.w3.org/1999/xlink" x="0px" y="0px"
	 viewBox="0 0 384.008 384.008" style="enable-background:new 0 0 384.008 384.008;" xml:space="preserve">
<path style="fill:#4DD0E1;" d="M235.996,104.008c0,37.36-23.2,69.2-56,82v-50c0-17.68-14.32-32-32-32c-8.8,0-16.8,3.6-22.64,9.36
	c-5.76,5.84-9.36,13.84-9.36,22.64v50c-32.8-12.8-56-44.64-56-82c0-48.64,39.36-88,88-88S235.996,55.368,235.996,104.008z"/>
<path style="fill:#012E52;" d="M300.004,208.008c-8.768,0-17.112,2.808-24,8.008c-6.888-5.2-15.232-8.008-24-8.008
	c-8.992,0-17.304,2.984-23.992,8.008c-9.04-6.824-21.128-9.416-32.008-7.208v-12.584c34.328-17.768,56-52.832,56-92.224
	c0-57.344-46.656-104-104-104s-104,46.656-104,104c0,39.392,21.672,74.456,56,92.224v171.784c0,8.832,7.168,16,16,16s16-7.168,16-16
	v-182v-50c0-4.248,1.688-8.296,4.592-11.248c3.112-3.064,7.16-4.752,11.408-4.752c8.824,0,16,7.176,16,16v50v62v56
	c0,8.832,7.168,16,16,16s16-7.168,16-16v-56c0-4.408,3.592-8,8-8c2.864,0,4.768,1.472,5.648,2.352s2.352,2.784,2.352,5.648v56
	c0,8.832,7.168,16,16,16s16-7.168,16-16v-56c0-4.408,3.592-8,8-8c2.864,0,4.768,1.472,5.648,2.352s2.352,2.784,2.352,5.648v56
	c0,8.832,7.168,16,16,16s16-7.168,16-16v-56c0-2.864,1.472-4.768,2.352-5.648s2.784-2.352,5.648-2.352c4.408,0,8,3.592,8,8v120
	c0,8.832,7.168,16,16,16s16-7.168,16-16v-120C340.004,225.952,322.06,208.008,300.004,208.008z M148.004,88.008
	c-12.712,0-24.736,4.96-34.032,14.128c-9,9.136-13.968,21.168-13.968,33.872v21.776c-15.048-13.36-24-32.68-24-53.776
	c0-39.696,32.304-72,72-72s72,32.304,72,72c0,21.096-8.952,40.416-24,53.776v-21.776C196.004,109.536,174.476,88.008,148.004,88.008
	z"/>
<g>
</g>
<g>
</g>
<g>
</g>
<g>
</g>
<g>
</g>
<g>
</g>
<g>
</g>
<g>
</g>
<g>
</g>
<g>
</g>
<g>
</g>
<g>
</g>
<g>
</g>
<g>
</g>
<g>
</g>
</svg>
