<svg height="384pt" viewBox="0 0 384 384" width="384pt" xmlns="http://www.w3.org/2000/svg"><path d="m288 112c0 53.019531-42.980469 96-96 96s-96-42.980469-96-96 42.980469-96 96-96 96 42.980469 96 96zm0 0" fill="#4dd0e1"/><path d="m80 208h224c35.34375 0 64 28.65625 64 64v112h-352v-112c0-35.34375 28.65625-64 64-64zm0 0" fill="#ff7043"/><g fill="#012e52"><path d="m304 192h-33.769531c20.800781-20.34375 33.769531-48.671875 33.769531-80 0-61.761719-50.238281-112-112-112s-112 50.238281-112 112c0 31.328125 12.96875 59.65625 33.769531 80h-33.769531c-44.113281 0-80 35.886719-80 80v16c0 8.832031 7.167969 16 16 16s16-7.167969 16-16v-16c0-26.472656 21.527344-48 48-48h224c26.472656 0 48 21.527344 48 48v96c0 8.832031 7.167969 16 16 16s16-7.167969 16-16v-96c0-44.113281-35.886719-80-80-80zm-112 0c-44.113281 0-80-35.886719-80-80s35.886719-80 80-80 80 35.886719 80 80-35.886719 80-80 80zm0 0"/><path d="m16 384c8.832031 0 16-7.167969 16-16v-16c0-8.832031-7.167969-16-16-16s-16 7.167969-16 16v16c0 8.832031 7.167969 16 16 16zm0 0"/></g></svg>