<svg height="383pt" viewBox="-15 0 383 383.992" width="383pt" xmlns="http://www.w3.org/2000/svg"><path d="m336.496094 192c0 22.480469-3.839844 44.078125-10.878906 63.839844-11.28125 5.199218-23.839844 8.160156-37.121094 8.160156-48.640625 0-88-39.359375-88-88s39.359375-88 88-88c6.320312 0 12.398437.640625 18.320312 1.921875 18.71875 28.796875 29.679688 64 29.679688 102.078125zm0 0" fill="#ff7043"/><path d="m176.496094 16c53.761718 0 101.359375 29.121094 130.320312 73.921875-5.921875-1.28125-12-1.921875-18.320312-1.921875-48.640625 0-88 39.359375-88 88s39.359375 88 88 88c13.28125 0 25.839844-2.960938 37.121094-8.160156-23.203126 65.679687-81.203126 112.160156-149.121094 112.160156-22.558594 0-44.082032-5.121094-63.519532-14.480469 14.320313-11.679687 23.519532-29.519531 23.519532-49.519531 0-35.359375-28.640625-64-64-64-17.28125 0-32.878906 6.878906-44.398438 17.921875-7.441406-20.320313-11.601562-42.640625-11.601562-65.921875 0-21.039062 3.359375-41.28125 9.519531-60 11.679687 12.320312 28.160156 20 46.480469 20 35.359375 0 64-28.640625 64-64 0-22.878906-12-42.960938-30.082032-54.238281 21.203126-11.363281 44.960938-17.761719 70.082032-17.761719zm0 0" fill="#4dd0e1"/><path d="m136.496094 304c0 20-9.199219 37.839844-23.519532 49.519531-38.480468-18.320312-69.121093-52.71875-84.878906-95.597656 11.519532-11.042969 27.117188-17.921875 44.398438-17.921875 35.359375 0 64 28.640625 64 64zm0 0" fill="#ff7043"/><path d="m106.414062 33.761719c18.082032 11.277343 30.082032 31.359375 30.082032 54.238281 0 35.359375-28.640625 64-64 64-18.320313 0-34.800782-7.679688-46.480469-20 14.242187-43.121094 43.28125-78.320312 80.398437-98.238281zm0 0" fill="#ff7043"/><path d="m320.246094 81.230469c-.007813-.007813-.015625-.023438-.023438-.03125-32.878906-50.847657-86.597656-81.199219-143.726562-81.199219-27.175782 0-53.296875 6.609375-77.640625 19.65625-40.800781 21.894531-71.785157 59.496094-87.496094 105.917969-.007813.019531-.007813.035156-.015625.050781-.160156.464844-.367188.902344-.519531 1.367188-6.847657 20.816406-10.328125 42.679687-10.328125 65.007812 0 24.609375 4.230468 48.640625 12.582031 71.433594.011719.03125.027344.054687.042969.085937.039062.105469.085937.199219.125.296875 17.097656 46.222656 50.914062 84.175782 92.792968 104.113282.039063.015624.074219.03125.113282.046874.0625.03125.128906.054688.183594.078126 22.0625 10.570312 45.671874 15.9375 70.160156 15.9375 73.320312 0 137.703125-48.121094 164.097656-122.566407.015625-.042969.03125-.074219.039062-.113281.015626-.039062.03125-.082031.046876-.121094 7.839843-21.976562 11.816406-45.261718 11.816406-69.191406 0-39.984375-11.144532-78.289062-32.230469-110.753906-.007813-.007813-.007813-.007813-.019531-.015625zm-23.324219 23.289062c15.382813 25.992188 23.574219 56.054688 23.574219 87.480469 0 17.863281-2.761719 35.214844-7.910156 51.824219-7.746094 2.742187-15.808594 4.175781-24.089844 4.175781-39.703125 0-72-32.296875-72-72s32.296875-72 72-72c2.886718 0 5.671875.199219 8.425781.519531zm-191.609375-51.421875c9.589844 8.957032 15.183594 21.421875 15.183594 34.902344 0 26.472656-21.527344 48-48 48-10.046875 0-19.566406-3.046875-27.585938-8.710938 12.503906-31.394531 33.503906-57.191406 60.402344-74.191406zm-57.695312 209.992188c7.480468-4.554688 16-7.089844 24.878906-7.089844 26.472656 0 48 21.527344 48 48 0 10.960938-3.71875 21.382812-10.398438 29.777344-26.890625-15.617188-48.945312-40.578125-62.480468-70.6875zm128.878906 88.910156c-12.457032 0-24.585938-1.929688-36.351563-5.359375 7.976563-12.601563 12.351563-27.296875 12.351563-42.640625 0-44.113281-35.886719-80-80-80-12.375 0-24.359375 2.886719-35.230469 8.246094-3.066406-13.09375-4.769531-26.535156-4.769531-40.246094 0-11.191406 1.152344-22.207031 3.191406-33 11.222656 5.839844 23.726562 9 36.808594 9 44.113281 0 80-35.886719 80-80 0-18.304688-6.214844-35.488281-17.128906-49.335938 13.273437-4.40625 27.023437-6.664062 41.128906-6.664062 35.894531 0 70.222656 15.0625 96.414062 41.296875-49.957031 7.566406-88.414062 50.671875-88.414062 102.703125 0 57.34375 46.65625 104 104 104 2.863281 0 5.6875-.222656 8.519531-.457031-26.175781 44.800781-70.878906 72.457031-120.519531 72.457031zm0 0" fill="#012e52"/></svg>