<svg height="384pt" viewBox="0 0 384 384.04487" width="384pt" xmlns="http://www.w3.org/2000/svg"><path d="m365.78125 128.605469c8.160156 26.960937-6.5625 53.757812-32.960938 59.839843-21.359374 4.960938-116.800781 16.71875-147.601562 16.320313-2.238281-.082031-4.160156-.082031-5.839844-.082031 0-1.679688 0-3.597656-.078125-5.839844-.398437-30.800781 11.359375-126.238281 16.320313-147.597656 6.078125-26.402344 32.878906-41.121094 59.839844-32.960938 26.960937 8.238282 43.839843 36.320313 37.757812 62.71875-1.199219 5.601563-6.558594 14.082032-14.078125 23.921875 9.839844-7.519531 18.320313-12.882812 23.917969-14.082031 26.402344-6.078125 54.480468 10.800781 62.722656 37.761719zm0 0" fill="#ff7043"/><path d="m310.347656 73.691406c1.648438-30.902344-19.109375-61.207031-50.246094-70.71875-17.722656-5.367187-35.9375-3.421875-51.289062 5.488282-14.703125 8.511718-24.929688 22.441406-28.777344 39.167968-5.351562 23.039063-16.847656 117.542969-16.710937 150.488282l-158.617188 158.617187c-6.246093 6.246094-6.246093 16.375 0 22.621094 3.121094 3.128906 7.21875 4.6875 11.3125 4.6875 4.097657 0 8.191407-1.558594 11.3125-4.6875l158.59375-158.589844h.75c33.105469 0 126.855469-11.425781 149.769531-16.746094 16.742188-3.863281 30.65625-14.085937 39.167969-28.773437 8.894531-15.359375 10.847657-33.570313 5.472657-51.328125-9.53125-31.152344-39.984376-51.847657-70.738282-50.226563zm37.578125 85.519532c-4.023437 6.945312-10.664062 11.800781-18.6875 13.640624-.011719.007813-.019531.007813-.035156.007813-19 4.417969-98.039063 14.160156-133.6875 15.714844 1.585937-36.007813 11.289063-114.738281 15.703125-133.738281 1.851562-8.023438 6.691406-14.664063 13.640625-18.695313 4.722656-2.734375 10.058594-4.121094 15.609375-4.121094 3.390625 0 6.863281.519531 10.328125 1.570313 19.03125 5.816406 31.070313 25.472656 26.792969 44.039062-.113282.449219-1.378906 4.792969-11.152344 17.582032-4.863281 6.371093-4.265625 15.363281 1.398438 21.027343 5.671874 5.664063 14.664062 6.261719 21.03125 1.398438 12.785156-9.777344 17.136718-11.046875 17.792968-11.199219 18.34375-4.226562 38.007813 7.824219 43.824219 26.808594 2.753906 9.136718 1.847656 18.359375-2.558594 25.964844zm0 0" fill="#012e52"/></svg>