<svg height="384pt" viewBox="-32 0 384 384" width="384pt" xmlns="http://www.w3.org/2000/svg"><path d="m237.441406 168c1.679688 7.761719 2.558594 15.761719 2.558594 24 0 20.398438-5.441406 39.519531-15.039062 56h-48.960938c-17.679688 0-32-14.320312-32-32v-16c0-17.679688 14.320312-32 32-32zm0 0" fill="#ff8a65"/><path d="m237.441406 168h-61.441406c-17.679688 0-32 14.320312-32 32v16c0 17.679688 14.320312 32 32 32h48.960938c-19.359376 33.519531-55.519532 56-96.960938 56-53.601562 0-98.398438-37.679688-109.441406-88h29.441406c17.679688 0 32-14.320312 32-32v-16c0-17.679688-14.320312-32-32-32h-16.960938c19.359376-33.519531 55.519532-56 96.960938-56 53.601562 0 98.398438 37.679688 109.441406 88zm0 0" fill="#4dd0e1"/><path d="m80 168v16c0 17.679688-14.320312 32-32 32h-29.441406c-1.679688-7.761719-2.558594-15.761719-2.558594-24 0-20.398438 5.441406-39.519531 15.039062-56h16.960938c17.679688 0 32 14.320312 32 32zm0 0" fill="#ff7043"/><path d="m17.207031 127.945312c-11.253906 19.335938-17.207031 41.480469-17.207031 64.054688 0 9.105469.976562 18.207031 2.871094 27.078125.015625.066406.015625.136719.03125.210937.007812.03125.007812.0625.019531.09375.007813.015626.007813.03125.015625.050782 11.621094 52.992187 56.199219 92.65625 109.0625 99.429687v33.136719h-16c-8.832031 0-16 7.167969-16 16s7.167969 16 16 16h32c105.863281 0 192-86.128906 192-192s-86.136719-192-192-192h-32c-8.832031 0-16 7.167969-16 16s7.167969 16 16 16h16v33.039062c-39.320312 4.992188-74.710938 28.144532-94.792969 62.90625zm15.21875 72.054688c-.21875-2.664062-.425781-5.328125-.425781-8 0-13.910156 3.160156-27.519531 8.921875-40h7.078125c8.824219 0 16 7.175781 16 16v16c0 8.824219-7.175781 16-16 16zm8.398438 32h7.175781c26.472656 0 48-21.527344 48-48v-16c0-21.464844-14.167969-39.679688-33.640625-45.800781 17.578125-16.496094 40.960937-26.199219 65.640625-26.199219 37.808594 0 71.742188 22.671875 87.175781 56h-39.175781c-26.472656 0-48 21.527344-48 48v16c0 26.472656 21.527344 48 48 48h15.113281c-17.273437 15.113281-39.578125 24-63.113281 24-37.800781 0-71.726562-22.65625-87.175781-56zm182.75-48c.21875 2.664062.425781 5.328125.425781 8 0 13.910156-3.160156 27.519531-8.921875 40h-39.078125c-8.824219 0-16-7.175781-16-16v-16c0-8.824219 7.175781-16 16-16zm64.425781 8c0 82.824219-63.265625 151.152344-144 159.207031v-32.246093c39.320312-5 74.710938-28.144532 94.792969-62.90625 11.253906-19.335938 17.207031-41.480469 17.207031-64.054688 0-9.039062-.976562-18.089844-2.855469-26.953125-.023437-.125-.03125-.261719-.066406-.390625-.007813-.03125-.007813-.0625-.015625-.097656-11.621094-52.984375-56.199219-92.648438-109.0625-99.421875v-32.34375c80.734375 8.054687 144 76.382812 144 159.207031zm0 0" fill="#012e52"/></svg>