<svg height="384pt" viewBox="0 0 384 384" width="384pt" xmlns="http://www.w3.org/2000/svg"><path d="m192 16c97.199219 0 176 78.800781 176 176 0 48.640625-19.679688 92.640625-51.519531 124.480469l-79.199219-79.199219c11.519531-11.601562 18.71875-27.601562 18.71875-45.28125 0-35.359375-28.640625-64-64-64zm0 0" fill="#ff7043"/><path d="m312 312 4.480469 4.480469c-31.839844 31.839843-75.839844 51.519531-124.480469 51.519531-97.199219 0-176-78.800781-176-176h112c0 35.359375 28.640625 64 64 64 17.679688 0 33.679688-7.199219 45.28125-18.71875zm0 0" fill="#4dd0e1"/><path d="m192 16v112c-35.359375 0-64 28.640625-64 64h-112c0-97.199219 78.800781-176 176-176zm0 0" fill="#e0f7fa"/><path d="m192 0c-105.863281 0-192 86.128906-192 192s86.136719 192 192 192c51.328125 0 99.542969-19.960938 135.792969-56.207031 36.246093-36.242188 56.207031-84.464844 56.207031-135.792969 0-105.871094-86.136719-192-192-192zm34.007812 225.929688c-9.144531 9.070312-21.214843 14.070312-34.007812 14.070312-26.472656 0-48-21.527344-48-48s21.527344-48 48-48 48 21.527344 48 48c0 12.792969-5 24.863281-13.992188 33.929688zm-50.007812-193.121094v80.800781c-31.296875 6.375-56.007812 31.085937-62.382812 62.382813h-80.800782c7.519532-75.464844 67.710938-135.648438 143.183594-143.183594zm-143.191406 175.191406h80.800781c7.429687 36.472656 39.75 64 78.382813 64 15.878906 0 31.085937-4.625 44.121093-13.257812l57.175781 57.179687c-28.488281 23.367187-63.90625 36.078125-101.289062 36.078125-82.824219 0-151.136719-63.265625-159.191406-144zm283.113281 85.296875-57.167969-57.167969c8.613282-13.015625 13.246094-28.234375 13.246094-44.128906 0-38.632812-27.527344-70.953125-64-78.382812v-80.800782c80.742188 8.046875 144 76.359375 144 159.183594 0 37.390625-12.710938 72.800781-36.078125 101.296875zm0 0" fill="#012e52"/></svg>