<svg height="384pt" viewBox="-24 0 384 384.00011" width="384pt" xmlns="http://www.w3.org/2000/svg"><path d="m240 16v352l-112-64-112 64v-352zm0 0" fill="#4dd0e1"/><path d="m320 160c0 44.183594-35.816406 80-80 80s-80-35.816406-80-80 35.816406-80 80-80 80 35.816406 80 80zm0 0" fill="#ff7043"/><g fill="#012e52"><path d="m256 65.449219v-49.449219c0-8.832031-7.167969-16-16-16h-128c-8.832031 0-16 7.167969-16 16s7.167969 16 16 16h112v33.449219c-45.328125 7.648437-80 47.078125-80 94.550781s34.671875 86.902344 80 94.550781v85.875l-88.0625-50.320312c-4.914062-2.816407-10.960938-2.816407-15.875 0l-88.0625 50.328125v-308.433594h16c8.832031 0 16-7.167969 16-16s-7.167969-16-16-16h-32c-8.832031 0-16 7.167969-16 16v352c0 5.703125 3.03125 10.976562 7.96875 13.839844 4.941406 2.855468 11.015625 2.886718 15.96875.046875l104.0625-59.453125 104.0625 59.460937c2.457031 1.402344 5.203125 2.105469 7.9375 2.105469 2.777344 0 5.542969-.71875 8.03125-2.160156 4.9375-2.863282 7.96875-8.136719 7.96875-13.839844v-113.449219c45.328125-7.648437 80-47.078125 80-94.550781s-34.671875-86.902344-80-94.550781zm-16 158.550781c-35.289062 0-64-28.710938-64-64s28.710938-64 64-64 64 28.710938 64 64-28.710938 64-64 64zm0 0"/><path d="m275.3125 124.6875c-6.242188-6.246094-16.382812-6.246094-22.625 0l-12.6875 12.6875-12.6875-12.6875c-6.242188-6.246094-16.382812-6.246094-22.625 0-6.246094 6.25-6.246094 16.375 0 22.625l12.6875 12.6875-12.6875 12.6875c-6.246094 6.25-6.246094 16.375 0 22.625 3.121094 3.128906 7.214844 4.6875 11.3125 4.6875s8.191406-1.558594 11.3125-4.6875l12.6875-12.6875 12.6875 12.6875c3.121094 3.128906 7.214844 4.6875 11.3125 4.6875s8.191406-1.558594 11.3125-4.6875c6.246094-6.25 6.246094-16.375 0-22.625l-12.6875-12.6875 12.6875-12.6875c6.246094-6.25 6.246094-16.375 0-22.625zm0 0"/></g></svg>