<svg height="384pt" viewBox="0 0 384 384" width="384pt" xmlns="http://www.w3.org/2000/svg"><path d="m368 192c0 97.203125-78.796875 176-176 176s-176-78.796875-176-176 78.796875-176 176-176 176 78.796875 176 176zm0 0" fill="#4dd0e1"/><path d="m80 160h224v64h-224zm0 0" fill="#ff7043"/><g fill="#012e52"><path d="m192 0c-105.871094 0-192 86.128906-192 192 0 38.800781 11.472656 76.136719 33.175781 107.976562 4.976563 7.296876 14.9375 9.191407 22.230469 4.207032 7.304688-4.976563 9.1875-14.925782 4.210938-22.230469-18.066407-26.503906-27.617188-57.609375-27.617188-89.953125 0-88.222656 71.777344-160 160-160s160 71.777344 160 160-71.777344 160-160 160c-28.183594 0-55.839844-7.382812-79.984375-21.367188-7.65625-4.425781-17.429687-1.816406-21.863281 5.832032-4.425782 7.648437-1.816406 17.429687 5.832031 21.863281 29.007813 16.792969 62.207031 25.671875 96.015625 25.671875 105.871094 0 192-86.128906 192-192s-86.128906-192-192-192zm0 0"/><path d="m304 240c8.832031 0 16-7.167969 16-16v-64c0-8.832031-7.167969-16-16-16h-224c-8.832031 0-16 7.167969-16 16v64c0 8.832031 7.167969 16 16 16zm-208-64h192v32h-192zm0 0"/></g></svg>