<?xml version="1.0" encoding="iso-8859-1"?>
<!-- Generator: Adobe Illustrator 19.0.0, SVG Export Plug-In . SVG Version: 6.00 Build 0)  -->
<svg version="1.1" id="Capa_1" xmlns="http://www.w3.org/2000/svg" xmlns:xlink="http://www.w3.org/1999/xlink" x="0px" y="0px"
	 viewBox="0 0 384 384" style="enable-background:new 0 0 384 384;" xml:space="preserve">
<path style="fill:#E0F7FA;" d="M367.992,192h-56c0-66.24-53.76-120-120-120V16C289.192,16,367.992,94.8,367.992,192z"/>
<path style="fill:#FF8A65;" d="M311.992,192h56c0,97.2-78.8,176-176,176v-56C258.232,312,311.992,258.24,311.992,192z"/>
<path style="fill:#FF7043;" d="M191.992,72c66.24,0,120,53.76,120,120s-53.76,120-120,120s-120-53.76-120-120S125.752,72,191.992,72
	z M245.112,192.56c7.12-17.04,0.56-37.36-14.64-45.36c-14-7.36-30.48-1.52-38.48,12.8c-7.92-14.32-24.4-20.16-38.48-12.8
	c-15.2,8-21.76,28.32-14.64,45.36s53.12,47.44,53.12,47.44S238.072,209.6,245.112,192.56z"/>
<path style="fill:#4DD0E1;" d="M230.472,147.2c15.2,8,21.76,28.32,14.64,45.36c-7.04,17.04-53.12,47.44-53.12,47.44
	s-46-30.4-53.12-47.44s-0.56-37.36,14.64-45.36c14.08-7.36,30.56-1.52,38.48,12.8C199.992,145.68,216.472,139.84,230.472,147.2z"/>
<path style="fill:#E0F7FA;" d="M191.992,312v56c-97.2,0-176-78.8-176-176h56C71.992,258.24,125.752,312,191.992,312z"/>
<path style="fill:#FF8A65;" d="M191.992,16v56c-66.24,0-120,53.76-120,120h-56C15.992,94.8,94.792,16,191.992,16z"/>
<g>
	<path style="fill:#012E52;" d="M192,0C86.136,0,0,86.128,0,192s86.136,192,192,192s192-86.128,192-192S297.864,0,192,0z
		 M176,32.808v24.216C113.792,64.36,64.36,113.792,57.024,176H32.808C40.336,100.528,100.528,40.344,176,32.808z M176,351.192
		C100.528,343.656,40.336,283.472,32.808,208h24.216C64.36,270.208,113.792,319.64,176,326.976V351.192z M88,192
		c0-57.344,46.656-104,104-104s104,46.656,104,104s-46.656,104-104,104S88,249.344,88,192z M208,351.192v-24.216
		C270.208,319.64,319.64,270.208,326.976,208h24.216C343.656,283.472,283.472,343.656,208,351.192z M326.976,176
		C319.64,113.792,270.208,64.36,208,57.024V32.808c75.472,7.536,135.656,67.72,143.192,143.192H326.976z"/>
	<path style="fill:#012E52;" d="M237.888,133c-15.024-7.864-32.48-6.016-45.752,3.384c-13.24-9.632-30.616-11.416-46.04-3.36
		c-22.656,11.92-32.336,40.76-22.024,65.712c8.36,20.008,47.376,46.872,59.144,54.624c2.672,1.76,5.736,2.64,8.808,2.64
		c3.072,0,6.144-0.88,8.816-2.648c11.76-7.752,50.76-34.608,59.064-54.656C270.264,173.856,260.632,145.016,237.888,133z
		 M230.36,186.392c-0.008,0.016-0.016,0.04-0.024,0.056c-2.384,5.776-19.272,20.672-38.304,34.16
		c-17.624-12.504-35.776-27.872-38.4-34.16c-3.912-9.456-0.528-20.952,7.328-25.096c1.768-0.92,3.6-1.36,5.408-1.36
		c4.52,0,8.896,2.768,11.672,7.752c2.824,5.08,8.168,8.224,13.984,8.224c5.816,0,11.168-3.152,13.984-8.232
		c3.824-6.864,10.976-9.56,17-6.424C230.92,165.512,234.296,176.992,230.36,186.392z"/>
</g>
<g>
</g>
<g>
</g>
<g>
</g>
<g>
</g>
<g>
</g>
<g>
</g>
<g>
</g>
<g>
</g>
<g>
</g>
<g>
</g>
<g>
</g>
<g>
</g>
<g>
</g>
<g>
</g>
<g>
</g>
</svg>
