<svg height="384pt" viewBox="-24 0 384 384.00007" width="384pt" xmlns="http://www.w3.org/2000/svg"><path d="m240 16v352l-112-64-112 64v-352zm0 0" fill="#4dd0e1"/><path d="m280 88c22.078125 0 40 18.640625 40 41.679688 0 42.320312-80 102.320312-80 102.320312s-8.160156-6.160156-19.28125-15.839844l-22-20.71875c-19.519531-20.082031-38.71875-45.042968-38.71875-65.761718 0-23.039063 17.921875-41.679688 40-41.679688s40 16.960938 40 40c0-23.039062 17.921875-40 40-40zm0 0" fill="#ff7043"/><path d="m280 72c-8.648438 0-16.753906 1.921875-24 5.289062v-61.289062c0-8.832031-7.167969-16-16-16h-128c-8.832031 0-16 7.167969-16 16s7.167969 16 16 16h112v45.289062c-7.246094-3.367187-15.351562-5.289062-24-5.289062-30.878906 0-56 25.871094-56 57.679688 0 21.816406 14.144531 46.976562 43.753906 77.410156l22.460938 21.140625c5.496094 4.785156 10.257812 8.707031 13.785156 11.546875v100.65625l-88.0625-50.320313c-4.914062-2.816406-10.960938-2.816406-15.875 0l-88.0625 50.320313v-308.433594h16c8.832031 0 16-7.167969 16-16s-7.167969-16-16-16h-32c-8.832031 0-16 7.167969-16 16v352c0 5.703125 3.03125 10.976562 7.96875 13.839844 4.941406 2.863281 11.015625 2.878906 15.96875.046875l104.0625-59.453125 104.0625 59.460937c2.457031 1.402344 5.203125 2.105469 7.9375 2.105469 2.777344 0 5.542969-.71875 8.03125-2.160156 4.9375-2.863282 7.96875-8.136719 7.96875-13.839844v-128.160156c20.894531-16.632813 80-67.457032 80-110.160156 0-31.808594-25.121094-57.679688-56-57.679688zm-39.929688 139.601562c-2.484374-2.050781-5.335937-4.441406-8.382812-7.089843l-21.496094-20.222657c-30.855468-31.753906-34.191406-48.769531-34.191406-54.609374 0-14.160157 10.769531-25.679688 24-25.679688 13.679688 0 24 10.320312 24 24 0 8.832031 7.167969 16 16 16s16-7.167969 16-16c0-13.679688 10.320312-24 24-24 13.230469 0 24 11.519531 24 25.679688 0 21.199218-34.710938 58.007812-63.929688 81.921874zm0 0" fill="#012e52"/></svg>