<svg id="Layer" enable-background="new 0 0 64 64" height="512" viewBox="0 0 64 64" width="512" xmlns="http://www.w3.org/2000/svg"><path d="m49.9 14.1c5.47 5.47 5.47 14.33 0 19.8l-17.9 20.1-17.9-20.1c-2.74-2.74-4.1-6.32-4.1-9.9s1.36-7.16 4.1-9.9c4.87-4.87 12.44-5.41 17.9-1.59 5.46-3.82 13.03-3.28 17.9 1.59z" fill="#ff7043"/><g fill="#012e52"><path d="m32 10.139c-6.214-3.608-14.14-2.628-19.314 2.547-3.022 3.021-4.686 7.04-4.686 11.314 0 4.255 1.648 8.255 4.644 11.272l17.862 20.058c.38.426.923.67 1.494.67s1.114-.244 1.493-.67l17.863-20.058c6.196-6.242 6.182-16.362-.042-22.587-5.173-5.173-13.099-6.156-19.314-2.546zm16.486 22.347c-.027.027-.054.056-.079.084l-16.407 18.423-16.406-18.423c-.026-.029-.052-.057-.08-.084-2.266-2.266-3.514-5.28-3.514-8.486s1.248-6.22 3.514-8.486c2.33-2.329 5.401-3.525 8.492-3.525 2.381 0 4.774.71 6.847 2.16.688.482 1.604.482 2.293 0 4.764-3.332 11.215-2.759 15.34 1.365 4.679 4.679 4.679 12.293 0 16.972z"/><path d="m39 27h-5v-5c0-1.104-.896-2-2-2s-2 .896-2 2v5h-5c-1.104 0-2 .896-2 2s.896 2 2 2h5v5c0 1.104.896 2 2 2s2-.896 2-2v-5h5c1.104 0 2-.896 2-2s-.896-2-2-2z"/></g></svg>