<?xml version="1.0" encoding="iso-8859-1"?>
<!-- Generator: Adobe Illustrator 19.0.0, SVG Export Plug-In . SVG Version: 6.00 Build 0)  -->
<svg version="1.1" id="Capa_1" xmlns="http://www.w3.org/2000/svg" xmlns:xlink="http://www.w3.org/1999/xlink" x="0px" y="0px"
	 viewBox="0 0 384 384" style="enable-background:new 0 0 384 384;" xml:space="preserve">
<path style="fill:#FF7043;" d="M288.237,94.08c32.96,22.24,41.68,66.96,19.44,100c-8,11.84-25.04,24.08-43.68,35.12
	c-33.52,19.6-72,34.8-72,34.8s-38.48-15.2-72-34.8c-18.64-11.04-35.68-23.28-43.68-35.12c-22.24-33.04-13.52-77.76,19.44-100
	c8.08-5.44,16.16-9.28,24.24-11.44c25.12-6.88,50.08,2.16,72,29.36c21.92-27.2,46.88-36.24,72-29.36
	C272.077,84.8,280.157,88.64,288.237,94.08z"/>
<path style="fill:#4DD0E1;" d="M263.997,229.2V368l-72-32l-72,32V229.2c33.52,19.6,72,34.8,72,34.8S230.477,248.8,263.997,229.2z"/>
<path style="fill:#E0F7FA;" d="M263.997,16v66.64c-25.12-6.88-50.08,2.16-72,29.36c-21.92-27.2-46.88-36.24-72-29.36V16H263.997z"/>
<g>
	<path style="fill:#012E52;" d="M297.165,80.808c-5.672-3.816-11.416-6.896-17.168-9.384V16c0-8.832-7.168-16-16-16h-144
		c-8.832,0-16,7.168-16,16v55.416c-5.752,2.488-11.504,5.568-17.184,9.4c-40.2,27.128-50.864,81.944-23.752,122.216
		c7.424,10.992,20.864,22.52,40.936,35.136V368c0,5.416,2.736,10.464,7.28,13.416c4.544,2.952,10.264,3.4,15.216,1.208l65.504-29.12
		l65.504,29.112c2.072,0.928,4.288,1.384,6.496,1.384c3.048,0,6.08-0.872,8.72-2.584c4.544-2.952,7.28-8,7.28-13.416V238.168
		c20.048-12.592,33.512-24.136,40.952-35.152C348.045,162.76,337.389,107.944,297.165,80.808z M247.997,32v32.456
		c-19.856,0.04-39.008,8.248-56,24.056c-17.008-15.824-36.168-24.024-56-24.064V32H247.997z M198.501,321.376
		c-4.144-1.832-8.856-1.832-13,0l-49.504,22V256.08c26.008,13.216,48.88,22.312,50.12,22.8c1.888,0.752,3.88,1.12,5.88,1.12
		s3.992-0.368,5.88-1.12c1.24-0.488,24.096-9.576,50.12-22.8v87.296L198.501,321.376z M294.421,185.12
		c-3.832,5.68-13.64,15.544-38.504,30.264c-24.472,14.312-52.096,26.368-63.928,31.32c-11.816-4.944-39.384-16.968-63.84-31.272
		c-24.936-14.768-34.736-24.632-38.56-30.288c-17.256-25.632-10.472-60.536,15.104-77.792c6.632-4.464,13.176-7.576,19.528-9.28
		c3.912-1.072,7.784-1.608,11.616-1.608c15.336,0,29.992,8.568,43.696,25.576c6.072,7.536,18.84,7.536,24.912,0
		c17.136-21.264,35.76-29.328,55.32-23.968c0.032,0.008,0.064,0.016,0.096,0.024c6.264,1.672,12.808,4.792,19.424,9.24
		C304.877,124.608,311.661,159.512,294.421,185.12z"/>
	<path style="fill:#012E52;" d="M135.997,112c-22.056,0-40,17.944-40,40c0,8.832,7.168,16,16,16s16-7.168,16-16c0-4.408,3.592-8,8-8
		c8.832,0,16-7.168,16-16S144.829,112,135.997,112z"/>
</g>
<g>
</g>
<g>
</g>
<g>
</g>
<g>
</g>
<g>
</g>
<g>
</g>
<g>
</g>
<g>
</g>
<g>
</g>
<g>
</g>
<g>
</g>
<g>
</g>
<g>
</g>
<g>
</g>
<g>
</g>
</svg>
