<svg id="Layer" enable-background="new 0 0 64 64" height="512" viewBox="0 0 64 64" width="512" xmlns="http://www.w3.org/2000/svg"><path d="m48 24h-32l12.83-12.83c.75-.75 1.77-1.17 2.83-1.17h.68c1.06 0 2.08.42 2.83 1.17l10.83 10.83z" fill="#ff7043"/><path d="m49 25v29h-34v-29l1-1h32zm-11.17 14.83c1.56-1.56 1.56-4.1 0-5.66s-4.1-1.56-5.66 0c-.06.06-.12.13-.17.19-.05-.06-.11-.13-.17-.19-1.56-1.56-4.1-1.56-5.66 0-.78.78-1.17 1.81-1.17 2.83s.39 2.05 1.17 2.83l5.83 6.17z" fill="#4dd0e1"/><path d="m37.83 34.17c1.56 1.56 1.56 4.1 0 5.66l-5.83 6.17-5.83-6.17c-.78-.78-1.17-1.81-1.17-2.83s.39-2.05 1.17-2.83c1.56-1.56 4.1-1.56 5.66 0 .06.06.12.13.17.19.05-.06.11-.13.17-.19 1.56-1.56 4.1-1.56 5.66 0z" fill="#ff7043"/><g fill="#012e52"><path d="m32.001 31.801c-2.295-1.324-5.284-1.006-7.246.955-1.131 1.133-1.755 2.64-1.755 4.244s.624 3.111 1.716 4.204l5.83 6.17c.378.399.904.626 1.454.626s1.076-.227 1.454-.626l5.791-6.13c2.338-2.341 2.338-6.147-.001-8.489-1.959-1.956-4.944-2.276-7.243-.954zm4.375 6.655-4.376 4.632-4.416-4.672c-.376-.377-.584-.88-.584-1.416s.208-1.039.584-1.416c.377-.377.88-.584 1.416-.584s1.039.207 1.409.577l.047.054c.761.925 2.37.877 3.128-.047.781-.779 2.052-.781 2.831 0 .781.78.781 2.052-.039 2.872z"/><path d="m50.415 23.587c-.001-.001-.002-.002-.003-.003l-.997-.997c-.001-.001-.002-.002-.003-.003l-1.412-1.412v-11.172c0-1.104-.896-2-2-2s-2 .896-2 2v7.172l-7.416-7.416c-1.115-1.116-2.663-1.756-4.244-1.756h-.68c-1.582 0-3.128.64-4.244 1.756l-12.829 12.829c-.001.001-.002.002-.003.003l-.997.997c-.001.001-.002.002-.003.003l-4.999 4.999c-.781.781-.781 2.047 0 2.828.78.781 2.048.781 2.828 0l1.587-1.587v24.172c0 1.104.896 2 2 2h34c1.104 0 2-.896 2-2v-24.172l1.586 1.586c.391.391.902.586 1.414.586s1.023-.195 1.414-.586c.781-.781.781-2.047 0-2.828zm-20.171-11.003c.372-.371.887-.584 1.416-.584h.68c.529 0 1.045.213 1.416.584l9.416 9.416h-22.344zm-13.244 39.416v-26h30v26z"/></g></svg>