<svg height="384pt" viewBox="-24 0 384 384" width="384pt" xmlns="http://www.w3.org/2000/svg"><path d="m240 16v352l-112-64-112 64v-352zm0 0" fill="#4dd0e1"/><path d="m320 160c0 44.183594-35.816406 80-80 80s-80-35.816406-80-80 35.816406-80 80-80 80 35.816406 80 80zm0 0" fill="#ff7043"/><path d="m256 65.449219v-49.449219c0-8.832031-7.167969-16-16-16h-128c-8.832031 0-16 7.167969-16 16s7.167969 16 16 16h112v33.449219c-45.328125 7.648437-80 47.078125-80 94.550781s34.671875 86.902344 80 94.550781v85.875l-88.0625-50.320312c-4.914062-2.816407-10.960938-2.816407-15.875 0l-88.0625 50.328125v-308.433594h16c8.832031 0 16-7.167969 16-16s-7.167969-16-16-16h-32c-8.832031 0-16 7.167969-16 16v352c0 5.703125 3.03125 10.976562 7.96875 13.832031 4.941406 2.871094 11.015625 2.878907 15.96875.054688l104.0625-59.453125 104.0625 59.460937c2.457031 1.402344 5.203125 2.105469 7.9375 2.105469 2.777344 0 5.542969-.71875 8.03125-2.167969 4.9375-2.855469 7.96875-8.128906 7.96875-13.832031v-113.449219c45.328125-7.648437 80-47.078125 80-94.550781s-34.671875-86.902344-80-94.550781zm-16 158.550781c-35.289062 0-64-28.710938-64-64 0-29.753906 20.441406-54.761719 48-61.894531v55.269531l-4.6875-4.6875c-6.242188-6.246094-16.382812-6.246094-22.625 0-6.246094 6.25-6.246094 16.375 0 22.625l32 32c.769531.765625 1.601562 1.449219 2.480469 2.03125.710937.472656 1.472656.839844 2.238281 1.183594.1875.082031.347656.199218.53125.28125.816406.335937 1.671875.558594 2.519531.757812.152344.035156.296875.105469.453125.136719 1.027344.191406 2.058594.296875 3.089844.296875.070312 0 .136719-.015625.207031-.023438.960938-.015624 1.921875-.097656 2.871094-.28125.128906-.023437.25-.078124.378906-.109374.894531-.203126 1.78125-.449219 2.640625-.800782.007813 0 .015625-.007812.023438-.007812.03125-.007813.046875-.035156.078125-.050782 1.242187-.519531 2.402343-1.253906 3.503906-2.101562.289063-.226562.570313-.449219.839844-.6875.25-.21875.527343-.386719.769531-.625l32-32c6.246094-6.25 6.246094-16.375 0-22.625-6.242188-6.246094-16.382812-6.246094-22.625 0l-4.6875 4.6875v-55.269531c27.558594 7.132812 48 32.132812 48 61.894531 0 35.289062-28.710938 64-64 64zm0 0" fill="#012e52"/></svg>